<svg width="951" height="1152" viewBox="0 0 951 1152" fill="none" xmlns="http://www.w3.org/2000/svg">
<g clip-path="url(#clip0_6436_1946)">
<rect width="951" height="1152" fill="#163C9A"/>
<path d="M291.021 664.576C288.461 664.576 286.093 664.112 283.917 663.184C281.773 662.256 279.885 660.96 278.253 659.296C276.653 657.632 275.405 655.68 274.509 653.44C273.613 651.2 273.165 648.752 273.165 646.096C273.165 643.44 273.597 640.992 274.461 638.752C275.357 636.48 276.605 634.528 278.205 632.896C279.837 631.232 281.741 629.952 283.917 629.056C286.093 628.128 288.461 627.664 291.021 627.664C293.581 627.664 295.869 628.096 297.885 628.96C299.933 629.824 301.661 630.976 303.069 632.416C304.477 633.824 305.485 635.376 306.093 637.072L300.237 639.808C299.565 638.016 298.429 636.544 296.829 635.392C295.229 634.208 293.293 633.616 291.021 633.616C288.781 633.616 286.797 634.144 285.069 635.2C283.373 636.256 282.045 637.712 281.085 639.568C280.157 641.424 279.693 643.6 279.693 646.096C279.693 648.592 280.157 650.784 281.085 652.672C282.045 654.528 283.373 655.984 285.069 657.04C286.797 658.096 288.781 658.624 291.021 658.624C293.293 658.624 295.229 658.048 296.829 656.896C298.429 655.712 299.565 654.224 300.237 652.432L306.093 655.168C305.485 656.864 304.477 658.432 303.069 659.872C301.661 661.28 299.933 662.416 297.885 663.28C295.869 664.144 293.581 664.576 291.021 664.576ZM309.905 664V627.664H316.193V643.024L315.329 642.112C315.937 640.544 316.929 639.36 318.305 638.56C319.713 637.728 321.345 637.312 323.201 637.312C325.121 637.312 326.817 637.728 328.289 638.56C329.793 639.392 330.961 640.56 331.793 642.064C332.625 643.536 333.041 645.248 333.041 647.2V664H326.753V648.688C326.753 647.536 326.529 646.544 326.081 645.712C325.633 644.88 325.009 644.24 324.209 643.792C323.441 643.312 322.529 643.072 321.473 643.072C320.449 643.072 319.537 643.312 318.737 643.792C317.937 644.24 317.313 644.88 316.865 645.712C316.417 646.544 316.193 647.536 316.193 648.688V664H309.905ZM345.318 664.576C343.494 664.576 341.91 664.272 340.566 663.664C339.222 663.056 338.182 662.192 337.446 661.072C336.71 659.92 336.342 658.592 336.342 657.088C336.342 655.648 336.662 654.368 337.302 653.248C337.942 652.096 338.934 651.136 340.278 650.368C341.622 649.6 343.318 649.056 345.366 648.736L353.91 647.344V652.144L346.566 653.392C345.318 653.616 344.39 654.016 343.782 654.592C343.174 655.168 342.87 655.92 342.87 656.848C342.87 657.744 343.206 658.464 343.878 659.008C344.582 659.52 345.446 659.776 346.47 659.776C347.782 659.776 348.934 659.504 349.926 658.96C350.95 658.384 351.734 657.6 352.278 656.608C352.854 655.616 353.142 654.528 353.142 653.344V646.624C353.142 645.504 352.694 644.576 351.798 643.84C350.934 643.072 349.782 642.688 348.342 642.688C346.998 642.688 345.798 643.056 344.742 643.792C343.718 644.496 342.966 645.44 342.486 646.624L337.35 644.128C337.862 642.752 338.662 641.568 339.75 640.576C340.87 639.552 342.182 638.752 343.686 638.176C345.19 637.6 346.822 637.312 348.582 637.312C350.726 637.312 352.614 637.712 354.246 638.512C355.878 639.28 357.142 640.368 358.038 641.776C358.966 643.152 359.43 644.768 359.43 646.624V664H353.478V659.536L354.822 659.44C354.15 660.56 353.35 661.504 352.422 662.272C351.494 663.008 350.438 663.584 349.254 664C348.07 664.384 346.758 664.576 345.318 664.576ZM375.717 664.288C372.773 664.288 370.485 663.488 368.853 661.888C367.253 660.256 366.453 657.968 366.453 655.024V643.504H361.941V637.888H362.421C363.701 637.888 364.693 637.552 365.397 636.88C366.101 636.208 366.453 635.232 366.453 633.952V631.936H372.741V637.888H378.741V643.504H372.741V654.688C372.741 655.552 372.885 656.288 373.173 656.896C373.493 657.504 373.973 657.968 374.613 658.288C375.285 658.608 376.133 658.768 377.157 658.768C377.381 658.768 377.637 658.752 377.925 658.72C378.245 658.688 378.549 658.656 378.837 658.624V664C378.389 664.064 377.877 664.128 377.301 664.192C376.725 664.256 376.197 664.288 375.717 664.288ZM396.828 664L387.852 637.888H394.476L401.052 657.712L398.748 657.664L405.756 637.888H411.324L418.284 657.664L415.98 657.712L422.556 637.888H429.18L420.204 664H414.588L407.484 643.312H409.596L402.396 664H396.828ZM431.667 664V637.888H437.955V664H431.667ZM431.667 634.96V628.24H437.955V634.96H431.667ZM454.705 664.288C451.761 664.288 449.473 663.488 447.841 661.888C446.241 660.256 445.441 657.968 445.441 655.024V643.504H440.929V637.888H441.409C442.689 637.888 443.681 637.552 444.385 636.88C445.089 636.208 445.441 635.232 445.441 633.952V631.936H451.729V637.888H457.729V643.504H451.729V654.688C451.729 655.552 451.873 656.288 452.161 656.896C452.481 657.504 452.961 657.968 453.601 658.288C454.273 658.608 455.121 658.768 456.145 658.768C456.369 658.768 456.625 658.752 456.913 658.72C457.233 658.688 457.537 658.656 457.825 658.624V664C457.377 664.064 456.865 664.128 456.289 664.192C455.713 664.256 455.185 664.288 454.705 664.288ZM461.669 664V627.664H467.957V643.024L467.093 642.112C467.701 640.544 468.693 639.36 470.069 638.56C471.477 637.728 473.109 637.312 474.965 637.312C476.885 637.312 478.581 637.728 480.053 638.56C481.557 639.392 482.725 640.56 483.557 642.064C484.389 643.536 484.805 645.248 484.805 647.2V664H478.517V648.688C478.517 647.536 478.293 646.544 477.845 645.712C477.397 644.88 476.773 644.24 475.973 643.792C475.205 643.312 474.293 643.072 473.237 643.072C472.213 643.072 471.301 643.312 470.501 643.792C469.701 644.24 469.077 644.88 468.629 645.712C468.181 646.544 467.957 647.536 467.957 648.688V664H461.669ZM499.902 674.56C499.198 674.56 498.51 674.496 497.838 674.368C497.166 674.272 496.558 674.08 496.014 673.792V668.56C496.43 668.656 496.926 668.752 497.502 668.848C498.11 668.944 498.67 668.992 499.182 668.992C500.622 668.992 501.662 668.656 502.302 667.984C502.974 667.344 503.566 666.48 504.078 665.392L505.806 661.36L505.71 666.64L494.334 637.888H501.102L509.07 659.104H506.67L514.59 637.888H521.406L510.03 666.64C509.358 668.304 508.542 669.728 507.582 670.912C506.622 672.096 505.502 672.992 504.222 673.6C502.974 674.24 501.534 674.56 499.902 674.56ZM536.198 664.576C533.638 664.576 531.302 663.984 529.19 662.8C527.11 661.616 525.446 660 524.198 657.952C522.982 655.904 522.374 653.568 522.374 650.944C522.374 648.32 522.982 645.984 524.198 643.936C525.446 641.888 527.11 640.272 529.19 639.088C531.27 637.904 533.606 637.312 536.198 637.312C538.758 637.312 541.078 637.904 543.158 639.088C545.238 640.272 546.886 641.888 548.102 643.936C549.35 645.952 549.974 648.288 549.974 650.944C549.974 653.568 549.35 655.904 548.102 657.952C546.854 660 545.19 661.616 543.11 662.8C541.03 663.984 538.726 664.576 536.198 664.576ZM536.198 658.816C537.606 658.816 538.838 658.48 539.894 657.808C540.982 657.136 541.83 656.208 542.438 655.024C543.078 653.808 543.398 652.448 543.398 650.944C543.398 649.408 543.078 648.064 542.438 646.912C541.83 645.728 540.982 644.8 539.894 644.128C538.838 643.424 537.606 643.072 536.198 643.072C534.758 643.072 533.494 643.424 532.406 644.128C531.318 644.8 530.454 645.728 529.814 646.912C529.206 648.064 528.902 649.408 528.902 650.944C528.902 652.448 529.206 653.808 529.814 655.024C530.454 656.208 531.318 657.136 532.406 657.808C533.494 658.48 534.758 658.816 536.198 658.816ZM563.094 664.576C561.078 664.576 559.318 664.128 557.814 663.232C556.342 662.336 555.206 661.088 554.406 659.488C553.638 657.888 553.254 656.016 553.254 653.872V637.888H559.542V653.344C559.542 654.432 559.75 655.392 560.166 656.224C560.614 657.024 561.238 657.664 562.038 658.144C562.87 658.592 563.798 658.816 564.822 658.816C565.846 658.816 566.758 658.592 567.558 658.144C568.358 657.664 568.982 657.008 569.43 656.176C569.878 655.344 570.102 654.352 570.102 653.2V637.888H576.39V664H570.438V658.864L570.966 659.776C570.358 661.376 569.35 662.576 567.942 663.376C566.566 664.176 564.95 664.576 563.094 664.576ZM581.276 664V637.888H587.18V643.696L586.7 642.832C587.308 640.88 588.252 639.52 589.532 638.752C590.844 637.984 592.412 637.6 594.236 637.6H595.772V643.168H593.516C591.724 643.168 590.284 643.728 589.196 644.848C588.108 645.936 587.564 647.472 587.564 649.456V664H581.276ZM617.984 664.576C615.456 664.576 613.2 663.984 611.216 662.8C609.232 661.584 607.664 659.936 606.512 657.856C605.36 655.776 604.784 653.472 604.784 650.944C604.784 648.384 605.36 646.08 606.512 644.032C607.664 641.984 609.232 640.352 611.216 639.136C613.232 637.92 615.472 637.312 617.936 637.312C619.92 637.312 621.68 637.712 623.216 638.512C624.784 639.28 626.016 640.368 626.912 641.776L625.952 643.072V627.664H632.24V664H626.288V658.96L626.96 660.208C626.064 661.616 624.816 662.704 623.216 663.472C621.616 664.208 619.872 664.576 617.984 664.576ZM618.656 658.816C620.096 658.816 621.36 658.48 622.448 657.808C623.536 657.136 624.384 656.208 624.992 655.024C625.632 653.84 625.952 652.48 625.952 650.944C625.952 649.44 625.632 648.096 624.992 646.912C624.384 645.696 623.536 644.752 622.448 644.08C621.36 643.408 620.096 643.072 618.656 643.072C617.248 643.072 615.984 643.424 614.864 644.128C613.744 644.8 612.864 645.728 612.224 646.912C611.616 648.064 611.312 649.408 611.312 650.944C611.312 652.48 611.616 653.84 612.224 655.024C612.864 656.208 613.744 657.136 614.864 657.808C615.984 658.48 617.248 658.816 618.656 658.816ZM645.05 664.576C643.226 664.576 641.642 664.272 640.298 663.664C638.954 663.056 637.914 662.192 637.178 661.072C636.442 659.92 636.074 658.592 636.074 657.088C636.074 655.648 636.394 654.368 637.034 653.248C637.674 652.096 638.666 651.136 640.01 650.368C641.354 649.6 643.05 649.056 645.098 648.736L653.642 647.344V652.144L646.298 653.392C645.05 653.616 644.122 654.016 643.514 654.592C642.906 655.168 642.602 655.92 642.602 656.848C642.602 657.744 642.938 658.464 643.61 659.008C644.314 659.52 645.178 659.776 646.202 659.776C647.514 659.776 648.666 659.504 649.658 658.96C650.682 658.384 651.466 657.6 652.01 656.608C652.586 655.616 652.874 654.528 652.874 653.344V646.624C652.874 645.504 652.426 644.576 651.53 643.84C650.666 643.072 649.514 642.688 648.074 642.688C646.73 642.688 645.53 643.056 644.474 643.792C643.45 644.496 642.698 645.44 642.218 646.624L637.082 644.128C637.594 642.752 638.394 641.568 639.482 640.576C640.602 639.552 641.914 638.752 643.418 638.176C644.922 637.6 646.554 637.312 648.314 637.312C650.458 637.312 652.346 637.712 653.978 638.512C655.61 639.28 656.874 640.368 657.77 641.776C658.698 643.152 659.162 644.768 659.162 646.624V664H653.21V659.536L654.554 659.44C653.882 660.56 653.082 661.504 652.154 662.272C651.226 663.008 650.17 663.584 648.986 664C647.802 664.384 646.49 664.576 645.05 664.576ZM675.449 664.288C672.505 664.288 670.217 663.488 668.585 661.888C666.985 660.256 666.185 657.968 666.185 655.024V643.504H661.673V637.888H662.153C663.433 637.888 664.425 637.552 665.129 636.88C665.833 636.208 666.185 635.232 666.185 633.952V631.936H672.473V637.888H678.473V643.504H672.473V654.688C672.473 655.552 672.617 656.288 672.905 656.896C673.225 657.504 673.705 657.968 674.345 658.288C675.017 658.608 675.865 658.768 676.889 658.768C677.113 658.768 677.369 658.752 677.657 658.72C677.977 658.688 678.281 658.656 678.569 658.624V664C678.121 664.064 677.609 664.128 677.033 664.192C676.457 664.256 675.929 664.288 675.449 664.288ZM690.239 664.576C688.415 664.576 686.831 664.272 685.487 663.664C684.143 663.056 683.103 662.192 682.367 661.072C681.631 659.92 681.263 658.592 681.263 657.088C681.263 655.648 681.583 654.368 682.223 653.248C682.863 652.096 683.855 651.136 685.199 650.368C686.543 649.6 688.239 649.056 690.287 648.736L698.831 647.344V652.144L691.487 653.392C690.239 653.616 689.311 654.016 688.703 654.592C688.095 655.168 687.791 655.92 687.791 656.848C687.791 657.744 688.127 658.464 688.799 659.008C689.503 659.52 690.367 659.776 691.391 659.776C692.703 659.776 693.855 659.504 694.847 658.96C695.871 658.384 696.655 657.6 697.199 656.608C697.775 655.616 698.063 654.528 698.063 653.344V646.624C698.063 645.504 697.615 644.576 696.719 643.84C695.855 643.072 694.703 642.688 693.263 642.688C691.919 642.688 690.719 643.056 689.663 643.792C688.639 644.496 687.887 645.44 687.407 646.624L682.271 644.128C682.783 642.752 683.583 641.568 684.671 640.576C685.791 639.552 687.103 638.752 688.607 638.176C690.111 637.6 691.743 637.312 693.503 637.312C695.647 637.312 697.535 637.712 699.167 638.512C700.799 639.28 702.063 640.368 702.959 641.776C703.887 643.152 704.351 644.768 704.351 646.624V664H698.399V659.536L699.743 659.44C699.071 660.56 698.271 661.504 697.343 662.272C696.415 663.008 695.359 663.584 694.175 664C692.991 664.384 691.679 664.576 690.239 664.576Z" fill="url(#paint0_linear_6436_1946)"/>
<g filter="url(#filter0_f_6436_1946)">
<ellipse cx="499.5" cy="1421" rx="842.5" ry="440" fill="#163C9A"/>
</g>
<mask id="mask0_6436_1946" style="mask-type:luminance" maskUnits="userSpaceOnUse" x="136" y="444" width="610" height="173">
<path d="M745.339 444H136V617H745.339V444Z" fill="white"/>
</mask>
<g mask="url(#mask0_6436_1946)">
<path d="M136 444V574.746C137.006 594.474 160.134 605.244 180.32 606.633C187.048 607.09 194.581 607.365 197.141 608.644C201.017 610.564 201.858 616.982 201.858 616.982C201.858 616.982 202.736 610.564 206.612 608.644C209.171 607.383 216.704 607.09 223.432 606.633C244.038 605.225 267.642 594.036 267.697 573.503V444H136ZM221.769 553.592C214.419 562.368 207.251 564.617 205.112 565.861V593.121L198.037 582.919V565.861C195.897 564.654 188.529 562.734 181.453 553.611C167.868 538.6 159.037 538.088 159.037 538.088C176.151 535.601 189.242 548.619 198.055 560.43L198.11 553.665V546.809H196.19L194.892 542.659H198.11V536.241C202.169 535.181 222.793 529.513 222.939 505.725C222.939 499.326 219.355 480.275 201.858 480.385C191.582 480.457 180.63 487.058 180.575 505.725C180.448 518.689 187.907 530.189 201.858 532.804C192.954 535.711 187.706 533.59 184.89 532.164C180.484 529.915 176.992 526.606 174.469 522.218C171.928 517.848 170.465 512.82 170.465 506.311C170.465 501.283 171.214 496.895 172.732 493.165C174.268 489.435 176.443 486.254 179.277 483.639C182.111 481.043 185.183 479.141 188.511 477.989C190.595 477.276 192.935 476.527 195.202 476.179C193.575 472.559 187.578 468.756 184.232 466.489C193.886 465.52 197.725 469.835 197.725 469.835C198 464.862 201.583 456.287 201.84 455.628V455.574L201.894 455.628C202.169 456.287 205.478 464.862 205.771 469.835C205.771 469.835 209.592 465.502 219.264 466.489C215.955 468.72 210.268 472.632 208.513 476.179C211.201 476.508 213.029 477.221 215.296 478.172C218.24 479.416 220.946 480.842 223.25 482.871C225.59 484.882 227.382 486.948 228.57 489.051C229.777 491.172 230.691 493.494 231.294 496.017C231.916 498.558 232.574 503.166 232.574 505.653C232.574 510.808 232.135 514.026 230.362 518.451C229.045 521.76 227.108 524.686 224.548 527.245C222.025 529.787 219.099 531.689 215.881 533.133C211.493 535.108 210.707 535.382 205.13 536.223V542.622H207.032L208.349 546.772H205.13V553.793V560.412C213.943 548.601 227.053 535.583 244.184 538.07C244.184 538.07 235.372 538.563 221.787 553.592H221.769ZM201.84 496.785C203.96 496.785 205.679 498.54 205.679 500.716C205.679 502.892 203.96 504.647 201.84 504.647C199.719 504.647 198.018 502.873 198.018 500.716C198.018 498.558 199.719 496.785 201.84 496.785ZM198.018 489.38C198.018 487.204 199.719 485.449 201.84 485.449C203.96 485.449 205.679 487.204 205.679 489.38C205.679 491.556 203.96 493.311 201.84 493.311C199.719 493.311 198.018 491.556 198.018 489.38ZM201.821 508.395C203.942 508.395 205.643 510.15 205.643 512.326C205.643 514.502 203.942 516.257 201.821 516.257C199.7 516.257 198.018 514.502 198.018 512.326C198.018 510.15 199.719 508.395 201.821 508.395ZM201.821 519.731C203.942 519.731 205.661 521.486 205.661 523.662C205.661 525.838 203.942 527.593 201.821 527.593C199.7 527.593 198 525.838 198 523.662C198 521.486 199.7 519.731 201.821 519.731ZM212.481 499.29C210.396 499.29 208.678 497.535 208.678 495.359C208.678 493.183 210.378 491.428 212.481 491.428C214.583 491.428 216.284 493.183 216.284 495.359C216.284 497.535 214.583 499.29 212.481 499.29ZM216.302 517.555C216.302 519.731 214.583 521.486 212.481 521.486C210.378 521.486 208.678 519.731 208.678 517.555C208.678 515.379 210.378 513.624 212.481 513.624C214.583 513.624 216.302 515.379 216.302 517.555ZM210.616 502.563C212.736 502.563 214.437 504.318 214.437 506.494C214.437 508.669 212.718 510.424 210.616 510.424C208.513 510.424 206.794 508.651 206.794 506.494C206.794 504.336 208.495 502.563 210.616 502.563ZM191.198 513.624C193.301 513.624 195.02 515.379 195.02 517.555C195.02 519.731 193.319 521.486 191.198 521.486C189.078 521.486 187.377 519.731 187.377 517.555C187.377 515.379 189.078 513.624 191.198 513.624ZM187.395 495.377C187.395 493.201 189.078 491.446 191.198 491.446C193.319 491.446 195.02 493.201 195.02 495.377C195.02 497.553 193.319 499.308 191.198 499.308C189.078 499.308 187.395 497.553 187.395 495.377ZM192.99 510.424C190.869 510.424 189.169 508.651 189.169 506.494C189.169 504.336 190.869 502.563 192.99 502.563C195.111 502.563 196.793 504.318 196.793 506.494C196.793 508.669 195.093 510.424 192.99 510.424Z" fill="white"/>
<path d="M299.148 485.778V463.746H304.834V485.778C304.834 492.049 308.344 494.499 312.696 494.499C317.047 494.499 320.558 492.086 320.558 485.339V463.746H324.123V485.778C324.123 494.408 318.437 497.973 311.636 497.973C304.834 497.973 299.148 494.17 299.148 485.778Z" fill="white"/>
<path d="M345.31 497.496V482.65C345.31 478.993 344.488 476.287 340.74 476.287C337.613 476.287 334.706 478.499 334.614 481.882V497.496H329.404V473.343H334.614V475.318C336.205 473.965 338.619 472.904 342.093 472.904C348.656 472.904 350.521 476.671 350.521 482.65V497.496H345.31Z" fill="white"/>
<path d="M355.83 470.783V466.633H361.041V470.783H355.83ZM355.83 497.496V473.398H361.041V497.496H355.83Z" fill="white"/>
<path d="M379.928 497.494H374.717C373.181 493.454 367.147 477.437 365.611 473.396H371.115L378.209 492.156L385.303 473.396H389.015C387.479 477.547 381.5 493.362 379.946 497.494H379.928Z" fill="white"/>
<path d="M396.834 488.518C396.834 492.321 398.863 494.497 402.959 494.497C406.085 494.497 408.261 493.674 410.729 491.517L412.649 494.26C410.236 496.819 406.488 497.971 402.575 497.971C395.865 497.971 391.623 495.411 391.623 488.866V481.388C391.623 475.08 397.017 472.904 402.995 472.904C408.974 472.904 412.923 474.97 412.923 480.803C412.923 487.111 407.822 488.518 402.611 488.518H396.834ZM396.834 481.095V485.045H402.282C405.555 485.045 407.676 483.838 407.676 481.004C407.676 478.024 406.177 476.287 402.758 476.287C399.339 476.287 396.834 477.64 396.834 481.114V481.095Z" fill="white"/>
<path d="M431.784 477.768C431.016 476.708 429.901 476.269 428.603 476.269C425.476 476.269 422.569 478.482 422.478 481.864V497.478H417.267V473.326H422.478V475.3C424.068 473.947 426.427 472.887 429.901 472.887C431.638 472.887 433.027 473.179 434.728 473.856C434.051 474.715 432.278 477.183 431.784 477.768Z" fill="white"/>
<path d="M437.606 494.223L439.582 491.663C441.372 493.729 443.767 494.607 446.329 494.607C449.309 494.607 451.336 493.345 451.336 491.48C451.336 486.708 438.319 486.562 438.319 479.23C438.319 475.427 441.976 472.922 447.479 472.922C451.1 472.922 454.189 474.038 456.402 476.159L454.481 478.755C452.654 477.018 450.332 476.25 448.065 476.25C445.266 476.25 443.239 477.365 443.239 478.81C443.239 482.722 456.693 482.667 456.693 490.859C456.693 495.155 452.781 497.989 446.951 497.989C443.036 497.989 439.764 496.691 437.588 494.223H437.606Z" fill="white"/>
<path d="M461.264 470.783V466.633H466.475V470.783H461.264ZM461.264 497.496V473.398H466.475V497.496H461.264Z" fill="white"/>
<path d="M488.836 497.498V496.053C487.482 496.967 485.506 497.973 481.943 497.973C474.373 497.973 471.284 491.409 471.284 485.303C471.284 478.318 474.373 472.906 481.594 472.906C485.251 472.906 487.282 473.967 488.872 475.228L488.817 463.746H494.029V497.498H488.817H488.836ZM488.836 481.536C488.781 477.623 485.801 476.142 483.057 476.142C477.994 476.142 476.896 481.207 476.896 485.248C476.896 489.288 478.486 494.499 483.406 494.499C486.587 494.499 488.854 493.384 488.854 489.873V481.536H488.836Z" fill="white"/>
<path d="M514.785 482.357C514.785 478.023 512.663 476.286 507.692 476.286C505.37 476.286 502.827 477.292 500.89 479.376L498.969 476.634C501.382 474.074 505.13 472.922 508.988 472.922C515.68 472.922 519.978 475.482 519.978 481.991V497.514H514.767V496.015C513.231 497.221 511 497.989 508.314 497.989C502.626 497.989 498.383 495.923 498.383 490.091C498.383 483.966 503.157 482.375 508.314 482.375H514.767L514.785 482.357ZM514.84 485.776H509.064C505.68 485.776 503.613 486.982 503.613 489.871C503.613 493.491 505.971 494.552 509.647 494.552C512.682 494.552 514.803 493.053 514.803 489.981L514.858 485.794L514.84 485.776Z" fill="white"/>
<path d="M541.867 497.498V496.053C540.513 496.967 538.537 497.973 534.971 497.973C527.402 497.973 524.312 491.409 524.312 485.303C524.312 478.318 527.402 472.906 534.625 472.906C538.282 472.906 540.31 473.967 541.903 475.228L541.849 463.746H547.057V497.498H541.849H541.867ZM541.867 481.536C541.809 477.623 538.832 476.142 536.088 476.142C531.022 476.142 529.908 481.207 529.908 485.248C529.908 489.288 531.499 494.499 536.416 494.499C539.6 494.499 541.867 493.384 541.867 489.873V481.536Z" fill="white"/>
<path d="M580.515 497.498V496.053C579.162 496.967 577.189 497.973 573.623 497.973C566.053 497.973 562.963 491.409 562.963 485.303C562.963 478.318 566.053 472.906 573.274 472.906C576.931 472.906 578.961 473.967 580.552 475.228L580.497 463.746H585.708V497.498H580.497H580.515ZM580.515 481.536C580.461 477.623 577.48 476.142 574.736 476.142C569.674 476.142 568.575 481.207 568.575 485.248C568.575 489.288 570.166 494.499 575.086 494.499C578.266 494.499 580.534 493.384 580.534 489.873V481.536H580.515Z" fill="white"/>
<path d="M595.739 488.518C595.739 492.321 597.767 494.497 601.864 494.497C604.99 494.497 607.166 493.674 609.634 491.517L611.555 494.26C609.139 496.819 605.391 497.971 601.479 497.971C594.768 497.971 590.528 495.411 590.528 488.866V481.388C590.528 475.08 595.921 472.904 601.901 472.904C607.88 472.904 611.828 474.97 611.828 480.803C611.828 487.111 606.726 488.518 601.515 488.518H595.739ZM595.739 481.095V485.045H601.187C604.459 485.045 606.581 483.838 606.581 481.004C606.581 478.024 605.081 476.287 601.661 476.287C598.243 476.287 595.739 477.64 595.739 481.114V481.095Z" fill="white"/>
<path d="M299.752 581.861V513.517H311.271V574.84H342.811V581.879H299.752V581.861Z" fill="white"/>
<path d="M385.785 551.196C385.785 542.401 381.488 538.891 371.432 538.891C366.751 538.891 361.577 540.938 357.665 545.144L353.752 539.585C358.634 534.411 366.258 532.071 374.065 532.071C387.632 532.071 396.334 537.245 396.334 550.428V581.875H385.785V578.84C382.658 581.272 378.161 582.844 372.694 582.844C361.175 582.844 352.582 578.639 352.582 566.828C352.582 554.432 362.254 551.214 372.694 551.214H385.785V551.196ZM385.876 558.125H374.156C367.318 558.125 363.113 560.557 363.113 566.426C363.113 573.757 367.904 575.897 375.327 575.897C381.47 575.897 385.767 572.861 385.767 566.627L385.858 558.125H385.876Z" fill="white"/>
<path d="M429.514 572.588L434.487 567.213C440.447 573.356 446.499 575.715 454.013 575.715C462.7 575.715 467.984 571.802 467.984 565.659C467.984 548.856 431.471 550.227 431.471 529.329C431.471 519.072 440.85 512.526 455.495 512.526C465.349 512.526 473.76 515.653 479.611 521.412L474.822 526.879C468.476 521.504 462.9 519.456 455.789 519.456C448.274 519.456 444.268 522.381 444.268 527.062C444.268 541.506 480.397 541.323 480.397 563.574C480.397 575.093 469.957 582.809 454.526 582.809C443.482 582.809 434.707 578.713 429.533 572.552L429.514 572.588Z" fill="white"/>
<path d="M522.351 551.196C522.351 542.401 518.057 538.891 507.998 538.891C503.318 538.891 498.143 540.938 494.231 545.144L490.319 539.585C495.199 534.411 502.824 532.071 510.633 532.071C524.2 532.071 532.901 537.245 532.901 550.428V581.875H522.351V578.84C519.225 581.272 514.727 582.844 509.261 582.844C497.743 582.844 489.147 578.639 489.147 566.828C489.147 554.432 498.82 551.214 509.261 551.214H522.351V551.196ZM522.442 558.125H510.724C503.886 558.125 499.679 560.557 499.679 566.426C499.679 573.757 504.472 575.897 511.892 575.897C518.057 575.897 522.333 572.861 522.333 566.627L522.424 558.125H522.442Z" fill="white"/>
<path d="M553.215 581.861H542.665V513.517H553.215V536.846C556.432 534.214 560.529 532.056 567.859 532.056C582.597 532.056 588.758 542.99 588.758 557.16C588.758 569.556 582.615 582.848 567.185 582.848C560.053 582.848 555.958 581.001 553.215 578.935V581.861ZM553.215 549.243V566.429C553.215 573.56 557.895 575.809 564.259 575.809C574.223 575.809 577.532 565.076 577.532 557.068C577.532 549.06 575.192 538.62 564.936 538.62C559.467 538.62 553.415 541.545 553.215 549.261V549.243Z" fill="white"/>
<path d="M629.755 551.196C629.755 542.401 625.457 538.891 615.402 538.891C610.722 538.891 605.547 540.938 601.635 545.144L597.722 539.585C602.603 534.411 610.227 532.071 618.036 532.071C631.6 532.071 640.305 537.245 640.305 550.428V581.875H629.755V578.84C626.629 581.272 622.13 582.844 616.664 582.844C605.146 582.844 596.551 578.639 596.551 566.828C596.551 554.432 606.224 551.214 616.664 551.214H629.755V551.196ZM629.846 558.125H618.127C611.289 558.125 607.083 560.557 607.083 566.426C607.083 573.757 611.872 575.897 619.296 575.897C625.457 575.897 629.736 572.861 629.736 566.627L629.827 558.125H629.846Z" fill="white"/>
<path d="M682.282 581.858V551.781C682.282 544.358 680.619 538.891 673.013 538.891C666.67 538.891 660.8 543.389 660.618 550.209V581.84H650.068V532.913H660.618V536.917C663.835 534.174 668.718 532.035 675.757 532.035C689.029 532.035 692.85 539.659 692.85 551.763V581.84H682.3L682.282 581.858Z" fill="white"/>
<path d="M734.819 551.196C734.819 542.401 730.522 538.891 720.466 538.891C715.786 538.891 710.611 540.938 706.699 545.144L702.787 539.585C707.667 534.411 715.292 532.071 723.101 532.071C736.668 532.071 745.369 537.245 745.369 550.428V581.875H734.819V578.84C731.693 581.272 727.195 582.844 721.729 582.844C710.211 582.844 701.615 578.639 701.615 566.828C701.615 554.432 711.288 551.214 721.729 551.214H734.819V551.196ZM734.91 558.125H723.192C716.354 558.125 712.147 560.557 712.147 566.426C712.147 573.757 716.94 575.897 724.36 575.897C730.522 575.897 734.801 572.861 734.801 566.627L734.892 558.125H734.91Z" fill="white"/>
</g>
</g>
<defs>
<filter id="filter0_f_6436_1946" x="-603" y="721" width="2205" height="1400" filterUnits="userSpaceOnUse" color-interpolation-filters="sRGB">
<feFlood flood-opacity="0" result="BackgroundImageFix"/>
<feBlend mode="normal" in="SourceGraphic" in2="BackgroundImageFix" result="shape"/>
<feGaussianBlur stdDeviation="130" result="effect1_foregroundBlur_6436_1946"/>
</filter>
<linearGradient id="paint0_linear_6436_1946" x1="750.846" y1="722.712" x2="750.846" y2="835.39" gradientUnits="userSpaceOnUse">
<stop stop-color="white"/>
<stop offset="1" stop-color="white" stop-opacity="0.53"/>
</linearGradient>
<clipPath id="clip0_6436_1946">
<rect width="951" height="1152" fill="white"/>
</clipPath>
</defs>
</svg>
