<svg width="620" height="598" viewBox="0 0 620 598" fill="none" xmlns="http://www.w3.org/2000/svg">
<g opacity="0.15">
<path d="M290.797 524.814V577.518C290.797 584.46 293.208 585.831 301.389 585.831H317.578C325.672 585.831 327.308 584.46 327.308 577.518V524.814H290.797Z" fill="#606060"/>
<path d="M309.742 502.533C254.975 502.447 201.5 487.707 155.086 459.769C108.758 431.917 70.439 391.554 44.4334 343.049C-0.861001 258.722 -10.0749 133.86 76.639 59.1315C97.3918 41.2207 122.45 27.6804 149.145 19.9676C158.961 17.1395 169.208 22.7099 172.05 32.4795C174.892 42.249 169.295 52.4471 159.478 55.2751C137.864 61.5311 117.542 72.5004 100.836 86.8977C29.4501 148.514 38.4918 253.837 77.0695 325.652C99.9751 368.33 133.645 403.809 174.289 428.232C214.933 452.656 261.864 465.597 309.828 465.682C320.075 465.682 328.342 473.995 328.342 484.107C328.169 494.306 319.903 502.533 309.742 502.533Z" fill="#606060"/>
<path d="M309.742 502.533C301.733 502.533 294.845 497.391 292.347 490.278C291.228 487.878 290.625 485.222 290.625 482.479V137.031C290.883 106.437 302.164 77.1282 322.4 54.5039C345.392 28.7089 379.922 12.8548 414.625 12.2549H416.52C417.467 12.1692 419.103 12.2549 420.653 12.2549H421.6C466.12 13.369 509.175 29.9944 542.845 59.0459C583.231 93.8393 608.031 145.858 609.322 198.219C611.82 302.685 554.986 405.265 464.397 459.684C417.983 487.707 364.508 502.447 309.742 502.533ZM417.897 49.105C417.725 49.105 417.553 49.105 417.381 49.105H415.056C390.686 49.5335 366.317 60.6742 350.042 78.9278C335.92 94.6963 327.825 115.949 327.653 137.202V465.083C369.331 462.255 409.717 449.657 445.367 428.233C524.761 380.499 574.62 290.602 572.381 199.162C571.347 156.999 551.284 115.007 518.734 86.8978C491.522 63.4165 456.733 50.0477 420.825 49.105H419.62C418.931 49.105 418.414 49.105 417.897 49.105Z" fill="#606060"/>
</g>
</svg>
