<svg width="375" height="589" viewBox="0 0 375 589" fill="none" xmlns="http://www.w3.org/2000/svg">
<path d="M271.978 418.5C241.071 455.7 211.195 465 201.923 470.167V584.867L172.047 541.467V469.133C162.775 463.967 131.868 455.7 101.992 417.467C44.2993 354.433 7.21143 352.367 7.21143 352.367C79.3268 342.033 133.928 396.8 172.047 446.4V417.467V388.533H163.805L158.654 370.967H172.047V344.1C189.56 339.967 276.099 315.167 277.129 214.933C277.129 188.067 261.676 107.467 188.53 107.467C145.261 107.467 98.901 135.367 98.901 214.933C98.901 269.7 129.808 318.267 188.53 329.633C151.442 342.033 128.777 332.733 117.445 326.533C98.901 317.233 84.4779 302.767 73.1455 284.167C62.8433 265.567 56.662 244.9 56.662 217C56.662 189.1 59.7526 177.733 65.934 161.2C72.1153 145.7 81.3873 132.267 93.7499 120.9C106.113 109.533 118.475 102.3 132.898 97.1334C142.17 94.0334 151.442 90.9334 160.714 89.9001C153.503 74.4001 128.777 58.9001 114.354 48.5668C154.533 44.4334 171.016 63.0334 171.016 63.0334C172.047 42.3668 187.5 6.2001 188.53 3.1001C189.56 6.2001 203.983 42.3668 205.014 63.0334C205.014 63.0334 221.497 44.4334 261.676 48.5668C247.253 57.8668 223.558 74.4001 216.346 89.9001C227.678 90.9334 234.89 94.0334 245.192 98.1668C257.555 103.333 268.887 109.533 279.189 117.8C289.492 126.067 296.703 135.367 301.854 143.633C307.005 152.933 311.126 162.233 313.187 172.567C316.277 182.9 318.338 202.533 318.338 212.867C318.338 234.567 316.277 248 309.066 266.6C303.915 281.067 295.673 292.433 284.341 303.8C274.038 314.133 261.676 322.4 248.283 328.6C229.739 336.867 226.648 337.9 202.953 342.033V368.9H211.195L216.346 386.467H202.953V444.333C240.041 394.733 295.673 338.933 367.788 350.3C367.788 350.3 330.7 352.367 273.008 415.4L271.978 418.5Z" fill="#001C64" fill-opacity="0.1"/>
<path d="M187.5 177.733C196.772 177.733 203.984 184.967 203.984 194.267C203.984 203.567 196.772 210.8 187.5 210.8C178.228 210.8 171.017 203.567 171.017 194.267C171.017 184.967 178.228 177.733 187.5 177.733Z" fill="#001C64" fill-opacity="0.1"/>
<path d="M171.017 146.733C171.017 137.433 178.228 130.2 187.5 130.2C196.772 130.2 203.984 137.433 203.984 146.733C203.984 156.033 196.772 163.267 187.5 163.267C178.228 163.267 171.017 156.033 171.017 146.733Z" fill="#001C64" fill-opacity="0.1"/>
<path d="M187.5 227.333C196.772 227.333 203.984 234.567 203.984 243.867C203.984 253.167 196.772 260.4 187.5 260.4C178.228 260.4 171.017 253.167 171.017 243.867C171.017 234.567 178.228 227.333 187.5 227.333Z" fill="#001C64" fill-opacity="0.1"/>
<path d="M187.5 274.867C196.772 274.867 203.984 282.1 203.984 291.4C203.984 300.7 196.772 307.933 187.5 307.933C178.228 307.933 171.017 300.7 171.017 291.4C171.017 282.1 178.228 274.867 187.5 274.867Z" fill="#001C64" fill-opacity="0.1"/>
<path d="M232.83 188.067C241.933 188.067 249.313 180.664 249.313 171.533C249.313 162.402 241.933 155 232.83 155C223.726 155 216.346 162.402 216.346 171.533C216.346 180.664 223.726 188.067 232.83 188.067Z" fill="#001C64" fill-opacity="0.1"/>
<path d="M248.283 265.567C248.283 274.867 241.071 282.1 231.799 282.1C222.527 282.1 215.316 274.867 215.316 265.567C215.316 256.267 222.527 249.033 231.799 249.033C241.071 249.033 248.283 256.267 248.283 265.567Z" fill="#001C64" fill-opacity="0.1"/>
<path d="M224.588 202.533C233.86 202.533 241.072 209.767 241.072 219.067C241.072 228.367 233.86 235.6 224.588 235.6C215.316 235.6 208.104 228.367 208.104 219.067C208.104 209.767 215.316 202.533 224.588 202.533Z" fill="#001C64" fill-opacity="0.1"/>
<path d="M143.2 249.033C152.472 249.033 159.684 256.267 159.684 265.567C159.684 274.867 152.472 282.1 143.2 282.1C133.928 282.1 126.717 274.867 126.717 265.567C126.717 256.267 133.928 249.033 143.2 249.033Z" fill="#001C64" fill-opacity="0.1"/>
<path d="M126.717 172.567C126.717 163.267 133.928 156.033 143.2 156.033C152.472 156.033 159.684 163.267 159.684 172.567C159.684 181.867 152.472 189.1 143.2 189.1C133.928 189.1 126.717 181.867 126.717 172.567Z" fill="#001C64" fill-opacity="0.1"/>
<path d="M150.412 235.6C141.14 235.6 133.929 228.367 133.929 219.067C133.929 209.767 141.14 202.533 150.412 202.533C159.684 202.533 166.896 209.767 166.896 219.067C166.896 228.367 159.684 235.6 150.412 235.6Z" fill="#001C64" fill-opacity="0.1"/>
</svg>
