<svg width="1663" height="736" viewBox="0 0 1663 736" fill="none" xmlns="http://www.w3.org/2000/svg">
<path d="M28.4581 707.64C25.6123 707.64 22.5991 706.965 19.9207 705.446C11.5507 700.719 8.7049 690.084 13.3921 681.644C14.7313 679.112 47.8765 620.367 101.947 575.127C109.312 569.05 120.193 569.894 126.22 577.321C132.246 584.749 131.409 595.721 124.043 601.798C74.9953 642.987 43.8589 698.187 43.5241 698.694C40.3435 704.433 34.4845 707.64 28.4581 707.64Z" fill="#FB8044"/>
<path d="M63.7792 716.925C58.9246 716.925 54.07 715.575 49.7176 712.874C37.33 705.108 33.4798 688.565 41.1802 676.074C42.8542 673.373 82.0258 610.576 160.202 553.182C206.237 519.42 256.289 494.437 309.02 478.907C374.976 459.494 445.116 454.936 517.601 465.402C532.164 467.428 542.208 481.101 540.032 495.619C538.023 510.305 524.464 520.433 510.068 518.239C393.055 501.358 286.421 527.186 193.179 595.046C122.704 646.364 86.5456 703.589 86.2108 704.264C81.1888 712.367 72.484 716.756 63.7792 716.756V716.925Z" fill="#8C61CC"/>
<path d="M240.554 521.784C234.527 521.784 228.668 518.576 225.488 513.006C220.801 504.565 223.646 493.93 232.016 489.204C319.734 439.237 426.368 432.147 500.526 435.017C580.208 438.224 638.631 452.741 641.142 453.417C650.349 455.78 656.041 465.233 653.697 474.518C651.353 483.802 641.979 489.541 632.772 487.178C631.768 487.009 574.349 472.829 498.517 469.791C429.214 467.09 329.611 473.674 249.259 519.42C246.58 520.94 243.567 521.615 240.721 521.615L240.554 521.784Z" fill="#42C7E6"/>
<path d="M1315.09 543.391C1302.37 543.391 1291.16 534.107 1288.98 521.109C1286.47 506.591 1296.18 492.749 1310.74 490.217C1456.88 465.233 1550.79 384.375 1589.63 250.173C1619.43 147.031 1604.86 49.292 1604.7 48.2792C1602.35 33.7617 1612.23 20.0883 1626.79 17.725C1641.19 15.3617 1654.75 25.3214 1657.09 39.8388C1657.76 44.2278 1673.83 148.888 1641.19 263.34C1610.39 371.039 1529.7 506.929 1319.78 542.885C1318.27 543.222 1316.77 543.222 1315.26 543.222L1315.09 543.391Z" fill="#8C61CC"/>
<path d="M1184.19 574.114C1073.87 574.114 990.004 549.468 985.819 548.117C977.951 545.754 973.431 537.314 975.775 529.38C978.118 521.446 986.488 516.888 994.356 519.251C995.528 519.589 1115.22 554.701 1252.65 540.521C1434.62 521.615 1560.17 429.446 1625.96 266.209C1629.14 258.444 1637.84 254.73 1645.54 257.937C1653.24 261.145 1656.93 269.923 1653.74 277.688C1615.08 373.57 1555.65 447.508 1476.97 497.644C1414.36 537.482 1339.53 562.128 1254.83 570.737C1230.39 573.27 1206.79 574.282 1184.19 574.282V574.114Z" fill="#FB8044"/>
<path d="M1192.89 551.156C1002.56 549.637 752.463 488.191 741.917 485.659C732.71 483.295 727.018 473.842 729.194 464.558C731.37 455.273 740.912 449.534 750.119 451.728C752.63 452.404 1006.91 514.693 1193.23 516.213C1202.77 516.213 1210.47 524.147 1210.3 533.769C1210.3 543.391 1202.43 550.987 1193.06 550.987L1192.89 551.156Z" fill="#42C7E6"/>
</svg>
