<svg width="224" height="216" viewBox="0 0 224 216" fill="none" xmlns="http://www.w3.org/2000/svg">
<path d="M105.062 189.565V208.602C105.062 211.109 105.933 211.604 108.889 211.604H114.738C117.662 211.604 118.253 211.109 118.253 208.602V189.565H105.062Z" fill="#606060"/>
<path d="M111.907 181.517C92.12 181.486 72.8 176.162 56.0311 166.071C39.2933 156.01 25.4489 141.431 16.0533 123.911C-0.311116 93.4514 -3.64 48.3508 27.6889 21.3585C35.1867 14.8891 44.24 9.99827 53.8844 7.21237C57.4311 6.19088 61.1333 8.20292 62.16 11.7317C63.1867 15.2605 61.1644 18.9441 57.6178 19.9656C49.8089 22.2253 42.4667 26.1874 36.4311 31.3878C10.64 53.644 13.9067 91.687 27.8444 117.627C36.12 133.042 48.2844 145.857 62.9689 154.679C77.6533 163.501 94.6089 168.175 111.938 168.206C115.64 168.206 118.627 171.209 118.627 174.862C118.564 178.545 115.578 181.517 111.907 181.517Z" fill="#606060"/>
<path d="M111.907 181.517C109.013 181.517 106.524 179.659 105.622 177.09C105.218 176.224 105 175.264 105 174.273V49.4961C105.093 38.4454 109.169 27.859 116.48 19.687C124.787 10.3697 137.262 4.64316 149.8 4.42648H150.484C150.827 4.39552 151.418 4.42648 151.978 4.42648H152.32C168.404 4.82888 183.96 10.834 196.124 21.3276C210.716 33.8951 219.676 52.6844 220.142 71.5976C221.044 109.331 200.511 146.383 167.782 166.04C151.013 176.162 131.693 181.486 111.907 181.517ZM150.982 17.7369C150.92 17.7369 150.858 17.7369 150.796 17.7369H149.956C141.151 17.8917 132.347 21.9157 126.467 28.509C121.364 34.2046 118.44 41.8813 118.378 49.558V167.99C133.436 166.968 148.027 162.418 160.907 154.679C189.591 137.438 207.604 104.966 206.796 71.9381C206.422 56.7085 199.173 41.5408 187.413 31.3878C177.582 22.9063 165.013 18.0774 152.04 17.7369H151.604C151.356 17.7369 151.169 17.7369 150.982 17.7369Z" fill="#606060"/>
</svg>
