<svg width="179" height="281" viewBox="0 0 179 281" fill="none" xmlns="http://www.w3.org/2000/svg">
<path d="M129.824 199.658C115.071 217.405 100.811 221.842 96.3847 224.307V279.028L82.1237 258.323V223.814C77.6979 221.349 62.9451 217.405 48.6841 199.165C21.1457 169.093 3.44238 168.107 3.44238 168.107C37.8655 163.177 63.9286 189.305 82.1237 212.968V199.165V185.361H78.1896L75.7308 176.981H82.1237V164.163C90.4836 162.191 131.791 150.36 132.283 102.54C132.283 89.7229 124.907 51.2702 89.9918 51.2702C69.338 51.2702 47.2089 64.5808 47.2089 102.54C47.2089 128.668 61.9616 151.839 89.9918 157.261C72.2885 163.177 61.4698 158.74 56.0605 155.783C47.2089 151.346 40.3242 144.444 34.9149 135.57C29.9973 126.697 27.0468 116.837 27.0468 103.526C27.0468 90.2159 28.5221 84.793 31.4726 76.9053C34.4232 69.5106 38.849 63.1018 44.7501 57.679C50.6512 52.2562 56.5523 48.8053 63.4369 46.3404C67.8627 44.8615 72.2885 43.3825 76.7144 42.8895C73.272 35.4948 61.4699 28.1001 54.5852 23.1702C73.7638 21.1983 81.6319 30.072 81.6319 30.072C82.1237 20.2123 89.5001 2.95795 89.9918 1.479C90.4836 2.95795 97.3682 20.2123 97.86 30.072C97.86 30.072 105.728 21.1983 124.907 23.1702C118.022 27.6071 106.712 35.4948 103.269 42.8895C108.679 43.3825 112.121 44.8615 117.039 46.8334C122.94 49.2983 128.349 52.2562 133.267 56.2001C138.184 60.1439 141.626 64.5808 144.085 68.5246C146.544 72.9615 148.511 77.3983 149.495 82.3281C150.97 87.258 151.953 96.6246 151.953 101.554C151.953 111.907 150.97 118.316 147.528 127.19C145.069 134.091 141.135 139.514 135.725 144.937C130.808 149.867 124.907 153.811 118.514 156.768C109.662 160.712 108.187 161.205 96.8764 163.177V175.995H100.811L103.269 184.376H96.8764V211.983C114.58 188.319 141.135 161.698 175.558 167.121C175.558 167.121 157.854 168.107 130.316 198.179L129.824 199.658Z" fill="#001C64"/>
<path d="M89.5 84.793C93.9258 84.793 97.3681 88.2438 97.3681 92.6807C97.3681 97.1175 93.9258 100.568 89.5 100.568C85.0741 100.568 81.6318 97.1175 81.6318 92.6807C81.6318 88.2438 85.0741 84.793 89.5 84.793Z" fill="#001C64"/>
<path d="M81.6318 70.0034C81.6318 65.5666 85.0741 62.1157 89.5 62.1157C93.9258 62.1157 97.3681 65.5666 97.3681 70.0034C97.3681 74.4403 93.9258 77.8912 89.5 77.8912C85.0741 77.8912 81.6318 74.4403 81.6318 70.0034Z" fill="#001C64"/>
<path d="M89.5 108.456C93.9258 108.456 97.3681 111.907 97.3681 116.344C97.3681 120.781 93.9258 124.231 89.5 124.231C85.0741 124.231 81.6318 120.781 81.6318 116.344C81.6318 111.907 85.0741 108.456 89.5 108.456Z" fill="#001C64"/>
<path d="M89.5 131.133C93.9258 131.133 97.3681 134.584 97.3681 139.021C97.3681 143.458 93.9258 146.909 89.5 146.909C85.0741 146.909 81.6318 143.458 81.6318 139.021C81.6318 134.584 85.0741 131.133 89.5 131.133Z" fill="#001C64"/>
<path d="M111.137 89.7227C115.483 89.7227 119.005 86.1913 119.005 81.835C119.005 77.4787 115.483 73.9473 111.137 73.9473C106.792 73.9473 103.269 77.4787 103.269 81.835C103.269 86.1913 106.792 89.7227 111.137 89.7227Z" fill="#001C64"/>
<path d="M118.514 126.697C118.514 131.133 115.071 134.584 110.645 134.584C106.22 134.584 102.777 131.133 102.777 126.697C102.777 122.26 106.22 118.809 110.645 118.809C115.071 118.809 118.514 122.26 118.514 126.697Z" fill="#001C64"/>
<path d="M107.203 96.6245C111.629 96.6245 115.071 100.075 115.071 104.512C115.071 108.949 111.629 112.4 107.203 112.4C102.777 112.4 99.335 108.949 99.335 104.512C99.335 100.075 102.777 96.6245 107.203 96.6245Z" fill="#001C64"/>
<path d="M68.3545 118.809C72.7803 118.809 76.2226 122.26 76.2226 126.697C76.2226 131.133 72.7803 134.584 68.3545 134.584C63.9286 134.584 60.4863 131.133 60.4863 126.697C60.4863 122.26 63.9286 118.809 68.3545 118.809Z" fill="#001C64"/>
<path d="M60.4863 82.3282C60.4863 77.8913 63.9286 74.4404 68.3545 74.4404C72.7803 74.4404 76.2226 77.8913 76.2226 82.3282C76.2226 86.765 72.7803 90.2159 68.3545 90.2159C63.9286 90.2159 60.4863 86.765 60.4863 82.3282Z" fill="#001C64"/>
<path d="M71.7968 112.4C67.371 112.4 63.9287 108.949 63.9287 104.512C63.9287 100.075 67.371 96.6245 71.7968 96.6245C76.2227 96.6245 79.665 100.075 79.665 104.512C79.665 108.949 76.2227 112.4 71.7968 112.4Z" fill="#001C64"/>
</svg>
