<svg width="219" height="32" viewBox="0 0 219 32" fill="none" xmlns="http://www.w3.org/2000/svg">
<path d="M73.9658 19.1686V6.86088C73.9658 6.59901 74.0441 6.44189 74.4226 6.44189H75.1794C75.5187 6.44189 75.6362 6.59901 75.6362 6.86088V19.09C75.6362 22.2848 77.0325 24.0262 80.5559 24.0262H81.8478C85.293 24.0262 87.1852 22.1669 87.1852 19.1293V6.86088C87.1852 6.59901 87.2635 6.44189 87.6028 6.44189H88.3988C88.6989 6.44189 88.8164 6.59901 88.8164 6.86088V25.1653C88.8164 25.4272 88.6989 25.5843 88.3988 25.5843H87.6028C87.2635 25.5843 87.1852 25.4272 87.1852 25.1653V23.2275H86.8459C85.828 24.6285 84.0532 25.5843 81.6651 25.5843H80.2688C75.8972 25.5843 73.9658 23.4501 73.9658 19.1686Z" fill="#606060"/>
<path d="M112.123 25.1655V22.3504H111.823C110.427 24.1965 108.156 25.5844 105.089 25.5844H104.933C100.666 25.5844 98.917 23.555 98.917 20.0591V19.2342C98.917 15.7776 101.188 14.4944 104.698 14.4944H112.11V12.6875C112.11 9.71537 111.132 8.02633 106.747 8.02633C104.476 8.02633 102.662 8.24892 101.266 8.74647C101.083 8.82503 100.887 8.70719 100.848 8.52388L100.692 7.699C100.653 7.5157 100.692 7.35858 100.874 7.3193C102.01 6.87413 104.085 6.45514 106.59 6.45514H107.23C111.862 6.44205 113.794 8.51079 113.794 12.5697V25.1655C113.794 25.4273 113.676 25.5844 113.337 25.5844H112.58C112.241 25.5844 112.123 25.4273 112.123 25.1655ZM104.868 24.0002H105.964C109.213 24.0002 112.123 21.4077 112.123 18.8152V15.9609H104.829C102.14 15.9609 100.587 16.7465 100.587 19.3389V19.9412C100.587 22.7956 102.023 24.0002 104.868 24.0002Z" fill="#606060"/>
<path d="M214.837 25.1523V22.3372H214.537C213.141 24.1834 210.87 25.5713 207.803 25.5713H207.647C203.38 25.5713 201.631 23.5418 201.631 20.0459V19.221C201.631 15.7644 203.902 14.4944 207.412 14.4944H214.824V12.6875C214.824 9.71531 213.845 8.02627 209.461 8.02627C207.19 8.02627 205.376 8.24886 203.98 8.7464C203.797 8.82496 203.601 8.70712 203.562 8.52382L203.406 7.69894C203.366 7.51563 203.406 7.35852 203.588 7.31924C204.724 6.87406 206.799 6.45508 209.304 6.45508H209.944C214.55 6.45508 216.481 8.52382 216.481 12.5827V25.1654C216.481 25.4273 216.364 25.5844 216.025 25.5844H215.268C214.955 25.5713 214.837 25.4142 214.837 25.1523ZM207.582 23.987H208.678C211.927 23.987 214.837 21.3945 214.837 18.8021V15.9477H207.542C204.854 15.9477 203.301 16.7333 203.301 19.3258V19.9281C203.314 22.7824 204.75 23.987 207.582 23.987Z" fill="#606060"/>
<path d="M125.93 8.79869C126.948 7.3977 128.696 6.44189 131.071 6.44189H132.468C136.813 6.44189 138.745 8.56301 138.745 12.8576V25.1653C138.745 25.4272 138.666 25.5843 138.288 25.5843H137.531C137.192 25.5843 137.113 25.4272 137.113 25.1653V12.9362C137.113 9.7414 135.678 8 132.154 8H130.863C127.417 8 125.564 9.85924 125.564 12.8969V25.1653C125.564 25.4272 125.486 25.5843 125.108 25.5843H124.351C124.011 25.5843 123.894 25.4272 123.894 25.1653V6.86088C123.894 6.59901 124.011 6.44189 124.351 6.44189H125.108C125.486 6.44189 125.564 6.59901 125.564 6.86088V8.79869H125.93Z" fill="#606060"/>
<path d="M150.28 21.3422V7.94772H147.71C147.449 7.94772 147.292 7.86916 147.292 7.52874V6.84789C147.292 6.50746 147.449 6.4289 147.71 6.4289H150.28V2.94608C150.28 2.68422 150.398 2.5271 150.698 2.5271H151.494C151.833 2.5271 151.912 2.68422 151.912 2.94608V6.4289H154.783C155.083 6.4289 155.2 6.50746 155.2 6.84789V7.52874C155.2 7.86916 155.083 7.94772 154.783 7.94772H151.912V20.9886C151.912 23.3716 152.59 24.0263 154.482 24.0263C154.939 24.0263 155.044 24.2096 155.044 24.4845V25.0868C155.044 25.4273 154.743 25.5844 153.83 25.5844C151.481 25.5844 150.28 24.3667 150.28 21.3422Z" fill="#606060"/>
<path d="M166.462 3.82334V2.94609C166.462 2.68422 166.579 2.5271 166.919 2.5271H167.793C168.132 2.5271 168.211 2.68422 168.211 2.94609V3.82334C168.211 4.12448 168.132 4.2816 167.793 4.2816H166.919C166.579 4.2816 166.462 4.12448 166.462 3.82334ZM166.54 6.86098C166.54 6.59911 166.658 6.44199 166.958 6.44199H167.754C168.093 6.44199 168.171 6.59911 168.171 6.86098V25.1523C168.171 25.4142 168.093 25.5713 167.754 25.5713H166.958C166.658 25.5713 166.54 25.4142 166.54 25.1523V6.86098Z" fill="#606060"/>
<path d="M184.432 24.9951L178.416 6.99181C178.298 6.69067 178.298 6.45499 178.677 6.45499H179.551C180.008 6.45499 180.047 6.65139 180.151 6.95253L185.684 23.8953H185.867L191.4 6.93944C191.518 6.63829 191.557 6.44189 191.961 6.44189H192.836C193.214 6.44189 193.214 6.67757 193.097 6.97872L187.12 24.9951C186.963 25.3748 186.82 25.5712 186.402 25.5712H185.149C184.732 25.5712 184.588 25.3748 184.432 24.9951Z" fill="#606060"/>
<path d="M55.8657 2.54028H53.7517C48.4144 2.54028 45.7783 4.6483 45.7783 9.03455V19.0902C45.7783 23.3455 48.31 25.4797 53.3993 25.5714H56.2181C61.2814 25.4797 63.8521 23.3455 63.8521 19.0902V9.02146C63.8391 4.6483 61.1509 2.54028 55.8657 2.54028ZM62.1426 19.0509C62.1426 22.5599 60.1721 24.1835 55.9049 24.1835H53.7125C49.4061 24.1835 47.4748 22.5599 47.4748 19.0509V9.02146C47.4748 5.55174 49.4061 3.92817 53.7125 3.92817H55.9049C60.1721 3.92817 62.1426 5.55174 62.1426 9.02146V19.0509Z" fill="#606060"/>
<path d="M53.9736 26.6057V29.0803C53.9736 29.4077 54.0911 29.4731 54.4695 29.4731H55.2264C55.6048 29.4731 55.6831 29.4077 55.6831 29.0803V26.6057H53.9736Z" fill="#606060"/>
<path d="M15.5557 26.6057V29.0803C15.5557 29.4077 15.6731 29.4731 16.0516 29.4731H16.8084C17.1869 29.4731 17.2652 29.4077 17.2652 29.0803V26.6057H15.5557Z" fill="#606060"/>
<path d="M16.4298 25.5714C13.8851 25.5714 11.3926 24.8774 9.22636 23.5681C7.07316 22.2588 5.28535 20.3603 4.07173 18.082C1.95768 14.1148 1.52704 8.24897 5.57245 4.73997C6.53812 3.902 7.7126 3.26042 8.95232 2.89381C9.40906 2.76288 9.8919 3.02474 10.0224 3.48301C10.1529 3.94128 9.8919 4.42573 9.43516 4.55666C8.43033 4.84471 7.4777 5.36844 6.70777 6.04929C3.3801 8.94291 3.79769 13.8922 5.59855 17.2572C6.66862 19.2604 8.23458 20.9233 10.1268 22.0755C12.019 23.2277 14.2113 23.83 16.4428 23.83C16.9126 23.83 17.3041 24.2228 17.3041 24.6941C17.2911 25.1786 16.9126 25.5714 16.4298 25.5714Z" fill="#606060"/>
<path d="M16.4299 25.5714C16.0514 25.5714 15.7382 25.3357 15.6208 24.9953C15.5686 24.8905 15.5425 24.7596 15.5425 24.6287V8.39298C15.5555 6.95272 16.0775 5.57793 17.0171 4.51737C18.0872 3.29969 19.6923 2.56647 21.3104 2.54028H21.4018C21.4409 2.54028 21.5192 2.54028 21.5975 2.54028H21.6367C23.7116 2.59266 25.7212 3.37825 27.2872 4.73996C29.1664 6.37662 30.3278 8.81197 30.38 11.2735C30.4974 16.1835 27.8483 21.0018 23.6333 23.555C21.4801 24.8643 18.9876 25.5583 16.4299 25.5714ZM21.467 4.2686C21.454 4.2686 21.454 4.2686 21.4409 4.2686H21.3365C20.2012 4.29478 19.0659 4.81852 18.309 5.66958C17.6565 6.4159 17.2781 7.41099 17.265 8.40608V23.8038C19.2094 23.6729 21.0886 23.0837 22.7459 22.0755C26.439 19.8365 28.7618 15.6074 28.6705 11.3128C28.6183 9.3357 27.6917 7.35861 26.1649 6.03619C24.8991 4.93636 23.281 4.30788 21.5975 4.2555H21.5453C21.5192 4.2686 21.4931 4.2686 21.467 4.2686Z" fill="#606060"/>
</svg>
