<svg width="202" height="57" viewBox="0 0 202 57" fill="none" xmlns="http://www.w3.org/2000/svg">
<g clip-path="url(#clip0_6436_1891)">
<mask id="mask0_6436_1891" style="mask-type:luminance" maskUnits="userSpaceOnUse" x="0" y="0" width="202" height="57">
<path d="M201.265 0H0.5V57H201.265V0Z" fill="white"/>
</mask>
<g mask="url(#mask0_6436_1891)">
<path d="M0.5 0V43.0783C0.831325 49.5783 8.45181 53.1265 15.1024 53.5843C17.3193 53.7349 19.8012 53.8253 20.6446 54.247C21.9217 54.8795 22.1988 56.994 22.1988 56.994C22.1988 56.994 22.488 54.8795 23.7651 54.247C24.6084 53.8313 27.0904 53.7349 29.3072 53.5843C36.0964 53.1205 43.8735 49.4337 43.8916 42.6687V0H0.5ZM28.759 36.1084C26.3374 39 23.9759 39.741 23.2711 40.1506V49.1325L20.9398 45.7711V40.1506C20.2349 39.753 17.8072 39.1205 15.4759 36.1145C11 31.1687 8.09036 31 8.09036 31C13.7289 30.1807 18.0422 34.4699 20.9458 38.3614L20.9639 36.1325V33.8735H20.3313L19.9036 32.506H20.9639V30.3916C22.3012 30.0422 29.0964 28.1747 29.1446 20.3373C29.1446 18.2289 27.9639 11.9518 22.1988 11.988C18.8133 12.012 15.2048 14.1867 15.1867 20.3373C15.1446 24.6084 17.6024 28.3976 22.1988 29.259C19.2651 30.2169 17.5361 29.5181 16.6084 29.0482C15.1566 28.3072 14.006 27.2169 13.1747 25.7711C12.3374 24.3313 11.8554 22.6747 11.8554 20.5301C11.8554 18.8735 12.1024 17.4277 12.6024 16.1988C13.1084 14.9699 13.8253 13.9217 14.759 13.0602C15.6928 12.2048 16.7048 11.5783 17.8012 11.1988C18.488 10.9639 19.259 10.7169 20.006 10.6024C19.4699 9.40964 17.494 8.15663 16.3916 7.40964C19.5723 7.09036 20.8373 8.51205 20.8373 8.51205C20.9277 6.87349 22.1084 4.04819 22.1928 3.83133V3.81325L22.2108 3.83133C22.3012 4.04819 23.3916 6.87349 23.488 8.51205C23.488 8.51205 24.747 7.08434 27.9337 7.40964C26.8434 8.14458 24.9699 9.43373 24.3916 10.6024C25.2771 10.7108 25.8795 10.9458 26.6265 11.259C27.5964 11.6687 28.488 12.1386 29.247 12.8072C30.0181 13.4699 30.6084 14.1506 31 14.8434C31.3976 15.5422 31.6988 16.3072 31.8976 17.1386C32.1024 17.9759 32.3193 19.494 32.3193 20.3133C32.3193 22.012 32.1747 23.0723 31.5904 24.5301C31.1566 25.6205 30.5181 26.5843 29.6747 27.4277C28.8434 28.2651 27.8795 28.8916 26.8193 29.3675C25.3735 30.0181 25.1145 30.1084 23.2771 30.3855V32.494H23.9036L24.3374 33.8614H23.2771V36.1747V38.3554C26.1807 34.4639 30.5 30.1747 36.1446 30.994C36.1446 30.994 33.241 31.1566 28.7651 36.1084H28.759ZM22.1928 17.3916C22.8916 17.3916 23.4578 17.9699 23.4578 18.6867C23.4578 19.4036 22.8916 19.9819 22.1928 19.9819C21.494 19.9819 20.9337 19.3976 20.9337 18.6867C20.9337 17.9759 21.494 17.3916 22.1928 17.3916ZM20.9337 14.9518C20.9337 14.2349 21.494 13.6566 22.1928 13.6566C22.8916 13.6566 23.4578 14.2349 23.4578 14.9518C23.4578 15.6687 22.8916 16.247 22.1928 16.247C21.494 16.247 20.9337 15.6687 20.9337 14.9518ZM22.1867 21.2169C22.8855 21.2169 23.4458 21.7952 23.4458 22.512C23.4458 23.2289 22.8855 23.8072 22.1867 23.8072C21.488 23.8072 20.9337 23.2289 20.9337 22.512C20.9337 21.7952 21.494 21.2169 22.1867 21.2169ZM22.1867 24.9518C22.8855 24.9518 23.4518 25.5301 23.4518 26.247C23.4518 26.9639 22.8855 27.5422 22.1867 27.5422C21.488 27.5422 20.9277 26.9639 20.9277 26.247C20.9277 25.5301 21.488 24.9518 22.1867 24.9518ZM25.6988 18.2169C25.0121 18.2169 24.4458 17.6386 24.4458 16.9217C24.4458 16.2048 25.006 15.6265 25.6988 15.6265C26.3916 15.6265 26.9518 16.2048 26.9518 16.9217C26.9518 17.6386 26.3916 18.2169 25.6988 18.2169ZM26.9578 24.2349C26.9578 24.9518 26.3916 25.5301 25.6988 25.5301C25.006 25.5301 24.4458 24.9518 24.4458 24.2349C24.4458 23.5181 25.006 22.9398 25.6988 22.9398C26.3916 22.9398 26.9578 23.5181 26.9578 24.2349ZM25.0843 19.2952C25.7831 19.2952 26.3434 19.8735 26.3434 20.5904C26.3434 21.3072 25.7771 21.8855 25.0843 21.8855C24.3916 21.8855 23.8253 21.3012 23.8253 20.5904C23.8253 19.8795 24.3855 19.2952 25.0843 19.2952ZM18.6867 22.9398C19.3795 22.9398 19.9458 23.5181 19.9458 24.2349C19.9458 24.9518 19.3855 25.5301 18.6867 25.5301C17.988 25.5301 17.4277 24.9518 17.4277 24.2349C17.4277 23.5181 17.988 22.9398 18.6867 22.9398ZM17.4337 16.9277C17.4337 16.2108 17.988 15.6325 18.6867 15.6325C19.3855 15.6325 19.9458 16.2108 19.9458 16.9277C19.9458 17.6446 19.3855 18.2229 18.6867 18.2229C17.988 18.2229 17.4337 17.6446 17.4337 16.9277ZM19.2771 21.8855C18.5783 21.8855 18.0181 21.3012 18.0181 20.5904C18.0181 19.8795 18.5783 19.2952 19.2771 19.2952C19.9759 19.2952 20.5301 19.8735 20.5301 20.5904C20.5301 21.3072 19.9699 21.8855 19.2771 21.8855Z" fill="#001C64"/>
<path d="M54.2539 13.7649V6.50586H56.1274V13.7649C56.1274 15.8312 57.284 16.6384 58.7178 16.6384C60.1515 16.6384 61.3081 15.8432 61.3081 13.6203V6.50586H62.4828V13.7649C62.4828 16.6083 60.6093 17.783 58.3684 17.783C56.1274 17.783 54.2539 16.53 54.2539 13.7649Z" fill="#001C64"/>
<path d="M69.4636 17.6258V12.7343C69.4636 11.5295 69.1925 10.6379 67.9576 10.6379C66.9275 10.6379 65.9696 11.3668 65.9395 12.4813V17.6258H64.2227V9.66802H65.9395V10.3186C66.4636 9.87283 67.2588 9.52344 68.4034 9.52344C70.566 9.52344 71.1805 10.7644 71.1805 12.7343V17.6258H69.4636Z" fill="#001C64"/>
<path d="M72.9297 8.8245V7.45703H74.6466V8.8245H72.9297ZM72.9297 17.6257V9.68595H74.6466V17.6257H72.9297Z" fill="#001C64"/>
<path d="M80.8692 17.6253H79.1523C78.6463 16.294 76.6584 11.0169 76.1523 9.68555H77.9656L80.3029 15.8663L82.6403 9.68555H83.8632C83.3572 11.053 81.3873 16.2639 80.8752 17.6253H80.8692Z" fill="#001C64"/>
<path d="M86.4395 14.668C86.4395 15.921 87.1082 16.6379 88.4576 16.6379C89.4877 16.6379 90.2046 16.3668 91.0178 15.656L91.6504 16.5596C90.8552 17.403 89.6203 17.7825 88.3311 17.7825C86.1202 17.7825 84.7227 16.9391 84.7227 14.7825V12.3186C84.7227 10.2403 86.4998 9.52344 88.4696 9.52344C90.4395 9.52344 91.7407 10.2042 91.7407 12.1258C91.7407 14.2042 90.06 14.668 88.3431 14.668H86.4395ZM86.4395 12.2222V13.5234H88.2347C89.313 13.5234 90.0118 13.1258 90.0118 12.1921C90.0118 11.2102 89.5178 10.6379 88.3913 10.6379C87.2648 10.6379 86.4395 11.0837 86.4395 12.2283V12.2222Z" fill="#001C64"/>
<path d="M97.955 11.126C97.702 10.7766 97.3345 10.632 96.9068 10.632C95.8767 10.632 94.9189 11.361 94.8887 12.4754V17.62H93.1719V9.66216H94.8887V10.3128C95.4128 9.86698 96.1899 9.51758 97.3345 9.51758C97.9068 9.51758 98.3646 9.61396 98.9249 9.83686C98.702 10.12 98.1177 10.9332 97.955 11.126Z" fill="#001C64"/>
<path d="M99.8732 16.5474L100.524 15.704C101.114 16.3847 101.903 16.6739 102.747 16.6739C103.729 16.6739 104.397 16.2582 104.397 15.6438C104.397 14.0715 100.108 14.0233 100.108 11.6076C100.108 10.3546 101.313 9.5293 103.126 9.5293C104.319 9.5293 105.337 9.89677 106.066 10.5956L105.433 11.451C104.831 10.8787 104.066 10.6257 103.319 10.6257C102.397 10.6257 101.729 10.9932 101.729 11.4691C101.729 12.7582 106.162 12.7401 106.162 15.4389C106.162 16.8546 104.873 17.7883 102.952 17.7883C101.662 17.7883 100.584 17.3606 99.8672 16.5474H99.8732Z" fill="#001C64"/>
<path d="M107.668 8.8245V7.45703H109.385V8.8245H107.668ZM107.668 17.6257V9.68595H109.385V17.6257H107.668Z" fill="#001C64"/>
<path d="M116.752 17.6263V17.1504C116.306 17.4516 115.655 17.783 114.481 17.783C111.987 17.783 110.969 15.6203 110.969 13.6083C110.969 11.3071 111.987 9.52393 114.366 9.52393C115.571 9.52393 116.24 9.87333 116.764 10.289L116.746 6.50586H118.463V17.6263H116.746H116.752ZM116.752 12.3673C116.734 11.0781 115.752 10.5902 114.848 10.5902C113.18 10.5902 112.818 12.2589 112.818 13.5902C112.818 14.9215 113.342 16.6384 114.963 16.6384C116.011 16.6384 116.758 16.2709 116.758 15.1143V12.3673H116.752Z" fill="#001C64"/>
<path d="M125.302 12.6377C125.302 11.21 124.603 10.6377 122.965 10.6377C122.2 10.6377 121.362 10.9691 120.724 11.6558L120.091 10.7522C120.886 9.90882 122.121 9.5293 123.392 9.5293C125.597 9.5293 127.013 10.3727 127.013 12.5172V17.6317H125.296V17.1377C124.79 17.5353 124.055 17.7883 123.17 17.7883C121.296 17.7883 119.898 17.1076 119.898 15.1859C119.898 13.1679 121.471 12.6438 123.17 12.6438H125.296L125.302 12.6377ZM125.32 13.7642H123.417C122.302 13.7642 121.621 14.1618 121.621 15.1136C121.621 16.3064 122.398 16.6558 123.609 16.6558C124.609 16.6558 125.308 16.1618 125.308 15.1498L125.326 13.7703L125.32 13.7642Z" fill="#001C64"/>
<path d="M134.225 17.6263V17.1504C133.779 17.4516 133.128 17.783 131.953 17.783C129.459 17.783 128.441 15.6203 128.441 13.6083C128.441 11.3071 129.459 9.52393 131.839 9.52393C133.044 9.52393 133.712 9.87333 134.237 10.289L134.219 6.50586H135.935V17.6263H134.219H134.225ZM134.225 12.3673C134.206 11.0781 133.225 10.5902 132.321 10.5902C130.652 10.5902 130.285 12.2589 130.285 13.5902C130.285 14.9215 130.809 16.6384 132.429 16.6384C133.478 16.6384 134.225 16.2709 134.225 15.1143V12.3673Z" fill="#001C64"/>
<path d="M146.959 17.6263V17.1504C146.513 17.4516 145.863 17.783 144.688 17.783C142.194 17.783 141.176 15.6203 141.176 13.6083C141.176 11.3071 142.194 9.52393 144.573 9.52393C145.778 9.52393 146.447 9.87333 146.971 10.289L146.953 6.50586H148.67V17.6263H146.953H146.959ZM146.959 12.3673C146.941 11.0781 145.959 10.5902 145.055 10.5902C143.387 10.5902 143.025 12.2589 143.025 13.5902C143.025 14.9215 143.549 16.6384 145.17 16.6384C146.218 16.6384 146.965 16.2709 146.965 15.1143V12.3673H146.959Z" fill="#001C64"/>
<path d="M151.975 14.668C151.975 15.921 152.643 16.6379 153.993 16.6379C155.023 16.6379 155.74 16.3668 156.553 15.656L157.186 16.5596C156.39 17.403 155.155 17.7825 153.866 17.7825C151.655 17.7825 150.258 16.9391 150.258 14.7825V12.3186C150.258 10.2403 152.035 9.52344 154.005 9.52344C155.975 9.52344 157.276 10.2042 157.276 12.1258C157.276 14.2042 155.595 14.668 153.878 14.668H151.975ZM151.975 12.2222V13.5234H153.77C154.848 13.5234 155.547 13.1258 155.547 12.1921C155.547 11.2102 155.053 10.6379 153.926 10.6379C152.8 10.6379 151.975 11.0837 151.975 12.2283V12.2222Z" fill="#001C64"/>
<path d="M54.4531 45.4224V22.9043H58.2483V43.1091H68.6399V45.4284H54.4531V45.4224Z" fill="#001C64"/>
<path d="M82.7991 35.3188C82.7991 32.4212 81.3835 31.2646 78.0702 31.2646C76.528 31.2646 74.8232 31.9393 73.5341 33.3248L72.2449 31.4935C73.8534 29.7887 76.3654 29.0176 78.9377 29.0176C83.4076 29.0176 86.275 30.7224 86.275 35.0658V45.4272H82.7991V44.4272C81.769 45.2284 80.2871 45.7465 78.4859 45.7465C74.6907 45.7465 71.8594 44.361 71.8594 40.4694C71.8594 36.385 75.0461 35.3248 78.4859 35.3248H82.7991V35.3188ZM82.8293 37.6019H78.9678C76.7148 37.6019 75.3293 38.4031 75.3293 40.3369C75.3293 42.7525 76.9076 43.4573 79.3534 43.4573C81.3774 43.4573 82.7931 42.4573 82.7931 40.4031L82.8232 37.6019H82.8293Z" fill="#001C64"/>
<path d="M97.207 42.3673L98.8456 40.5962C100.809 42.6203 102.803 43.3974 105.279 43.3974C108.141 43.3974 109.882 42.1082 109.882 40.0842C109.882 34.548 97.8516 34.9998 97.8516 28.1143C97.8516 24.7348 100.942 22.5781 105.767 22.5781C109.014 22.5781 111.785 23.6082 113.713 25.5058L112.135 27.307C110.044 25.536 108.207 24.8613 105.864 24.8613C103.388 24.8613 102.068 25.8251 102.068 27.3673C102.068 32.1263 113.972 32.0661 113.972 39.3974C113.972 43.1926 110.532 45.7348 105.448 45.7348C101.809 45.7348 98.9179 44.3854 97.2131 42.3552L97.207 42.3673Z" fill="#001C64"/>
<path d="M127.795 35.3188C127.795 32.4212 126.38 31.2646 123.066 31.2646C121.524 31.2646 119.819 31.9393 118.53 33.3248L117.241 31.4935C118.849 29.7887 121.361 29.0176 123.934 29.0176C128.404 29.0176 131.271 30.7224 131.271 35.0658V45.4272H127.795V44.4272C126.765 45.2284 125.283 45.7465 123.482 45.7465C119.687 45.7465 116.855 44.361 116.855 40.4694C116.855 36.385 120.042 35.3248 123.482 35.3248H127.795V35.3188ZM127.825 37.6019H123.964C121.711 37.6019 120.325 38.4031 120.325 40.3369C120.325 42.7525 121.904 43.4573 124.349 43.4573C126.38 43.4573 127.789 42.4573 127.789 40.4031L127.819 37.6019H127.825Z" fill="#001C64"/>
<path d="M137.964 45.4224H134.488V22.9043H137.964V30.591C139.024 29.7236 140.374 29.0127 142.789 29.0127C147.645 29.0127 149.675 32.6151 149.675 37.2838C149.675 41.3682 147.651 45.7477 142.567 45.7477C140.217 45.7477 138.868 45.1392 137.964 44.4585V45.4224ZM137.964 34.6754V40.338C137.964 42.6874 139.506 43.4284 141.603 43.4284C144.886 43.4284 145.976 39.8922 145.976 37.2537C145.976 34.6151 145.205 31.1754 141.826 31.1754C140.024 31.1754 138.03 32.1392 137.964 34.6814V34.6754Z" fill="#001C64"/>
<path d="M163.182 35.3188C163.182 32.4212 161.766 31.2646 158.453 31.2646C156.911 31.2646 155.206 31.9393 153.917 33.3248L152.628 31.4935C154.236 29.7887 156.748 29.0176 159.321 29.0176C163.79 29.0176 166.658 30.7224 166.658 35.0658V45.4272H163.182V44.4272C162.152 45.2284 160.67 45.7465 158.869 45.7465C155.074 45.7465 152.242 44.361 152.242 40.4694C152.242 36.385 155.429 35.3248 158.869 35.3248H163.182V35.3188ZM163.212 37.6019H159.351C157.098 37.6019 155.712 38.4031 155.712 40.3369C155.712 42.7525 157.29 43.4573 159.736 43.4573C161.766 43.4573 163.176 42.4573 163.176 40.4031L163.206 37.6019H163.212Z" fill="#001C64"/>
<path d="M180.489 45.4215V35.5119C180.489 33.0661 179.941 31.2649 177.435 31.2649C175.345 31.2649 173.411 32.7468 173.351 34.9938V45.4155H169.875V29.295H173.351V30.6143C174.411 29.7107 176.02 29.0059 178.339 29.0059C182.712 29.0059 183.971 31.5179 183.971 35.5059V45.4155H180.495L180.489 45.4215Z" fill="#001C64"/>
<path d="M197.799 35.3188C197.799 32.4212 196.383 31.2646 193.07 31.2646C191.528 31.2646 189.823 31.9393 188.534 33.3248L187.245 31.4935C188.853 29.7887 191.365 29.0176 193.938 29.0176C198.408 29.0176 201.275 30.7224 201.275 35.0658V45.4272H197.799V44.4272C196.769 45.2284 195.287 45.7465 193.486 45.7465C189.691 45.7465 186.859 44.361 186.859 40.4694C186.859 36.385 190.046 35.3248 193.486 35.3248H197.799V35.3188ZM197.829 37.6019H193.968C191.715 37.6019 190.329 38.4031 190.329 40.3369C190.329 42.7525 191.908 43.4573 194.353 43.4573C196.383 43.4573 197.793 42.4573 197.793 40.4031L197.823 37.6019H197.829Z" fill="#001C64"/>
</g>
</g>
<defs>
<clipPath id="clip0_6436_1891">
<rect width="202" height="57" fill="white"/>
</clipPath>
</defs>
</svg>
