<svg width="239" height="52" viewBox="0 0 239 52" fill="none" xmlns="http://www.w3.org/2000/svg">
<path d="M75.896 23.16C71.352 23.16 69.208 20.888 69.208 16.696V6.904C69.208 2.68 71.352 0.439999 75.896 0.439999H78.072C82.648 0.439999 84.696 2.552 84.696 6.68V6.84C84.696 7.064 84.536 7.192 84.312 7.192H82.648C82.424 7.192 82.296 7.064 82.296 6.84C82.296 3.8 80.792 2.648 77.976 2.648H75.992C73.016 2.648 71.608 3.928 71.608 6.936V16.632C71.608 19.672 73.016 20.952 75.992 20.952H77.976C80.792 20.952 82.296 19.832 82.296 16.984C82.296 16.76 82.424 16.632 82.648 16.632H84.312C84.536 16.632 84.696 16.792 84.696 16.984V17.176C84.696 21.08 82.648 23.16 78.072 23.16H75.896ZM89.0265 23C88.7065 23 88.6105 22.872 88.6105 22.584V1.016C88.6105 0.727999 88.7065 0.599998 89.0265 0.599998H90.5305C90.8185 0.599998 90.9465 0.727999 90.9465 1.016V8.792H91.2985C92.0985 7.608 93.5385 6.872 95.4265 6.872H96.3545C100.035 6.872 101.539 8.728 101.539 12.28V22.584C101.539 22.872 101.411 23 101.155 23H99.6185C99.3305 23 99.2345 22.872 99.2345 22.584V12.472C99.2345 10.232 98.1785 9.016 95.8425 9.016H94.6265C92.2905 9.016 90.9465 10.264 90.9465 12.44V22.584C90.9465 22.872 90.8185 23 90.5305 23H89.0265ZM116.17 23C115.85 23 115.754 22.872 115.754 22.584V20.6H115.434C114.314 22.04 112.65 23.16 110.25 23.16H110.058C106.634 23.16 105.162 21.432 105.162 18.456V17.624C105.162 14.744 106.954 13.592 110.09 13.592H115.754V12.312C115.754 10.168 114.922 8.984 111.594 8.984C109.962 8.984 108.426 9.176 107.37 9.528C107.146 9.592 106.954 9.496 106.922 9.272L106.698 8.056C106.634 7.832 106.73 7.672 106.922 7.608C107.914 7.224 109.674 6.872 111.818 6.872H112.458C116.426 6.872 118.09 8.76 118.09 12.152V22.584C118.09 22.872 117.962 23 117.674 23H116.17ZM107.466 18.328C107.466 20.28 108.49 21.048 110.378 21.048H111.498C113.866 21.048 115.754 19.224 115.754 17.4V15.416H110.346C108.522 15.416 107.466 15.928 107.466 17.784V18.328ZM126.981 23.16C124.229 23.16 123.397 21.688 123.397 18.904V9.112H121.285C120.997 9.112 120.869 8.984 120.869 8.696V7.416C120.869 7.096 120.997 7 121.285 7H123.397V3.96C123.397 3.704 123.525 3.576 123.813 3.576H125.317C125.605 3.576 125.733 3.704 125.733 3.96V7H128.165C128.453 7 128.581 7.096 128.581 7.416V8.696C128.581 8.984 128.453 9.112 128.165 9.112H125.733V18.776C125.733 20.536 126.309 21.048 127.781 21.048C128.229 21.048 128.389 21.24 128.389 21.592V22.488C128.389 22.968 128.069 23.16 126.981 23.16ZM142.006 23C141.654 23 141.43 22.84 141.334 22.456L137.686 7.48C137.622 7.192 137.654 7 137.974 7H139.51C139.83 7 139.958 7.192 140.022 7.48L143.158 20.728H143.286L146.902 7.48C146.998 7.192 147.094 7 147.414 7H149.238C149.558 7 149.622 7.192 149.718 7.48L153.366 20.728H153.494L156.63 7.48C156.694 7.192 156.822 7 157.142 7H158.646C158.966 7 159.03 7.192 158.966 7.48L155.318 22.456C155.222 22.84 154.998 23 154.646 23H152.31C151.958 23 151.734 22.84 151.638 22.456L148.406 10.392H148.246L145.014 22.456C144.918 22.84 144.694 23 144.342 23H142.006ZM162.714 2.904C162.394 2.904 162.298 2.776 162.298 2.488V1.016C162.298 0.727999 162.394 0.599998 162.714 0.599998H164.25C164.57 0.599998 164.666 0.727999 164.666 1.016V2.488C164.666 2.776 164.57 2.904 164.25 2.904H162.714ZM162.33 22.584V7.416C162.33 7.128 162.458 7 162.746 7H164.25C164.538 7 164.666 7.128 164.666 7.416V22.584C164.666 22.872 164.538 23 164.25 23H162.746C162.458 23 162.33 22.872 162.33 22.584ZM173.919 23.16C171.167 23.16 170.335 21.688 170.335 18.904V9.112H168.223C167.935 9.112 167.807 8.984 167.807 8.696V7.416C167.807 7.096 167.935 7 168.223 7H170.335V3.96C170.335 3.704 170.463 3.576 170.751 3.576H172.255C172.543 3.576 172.671 3.704 172.671 3.96V7H175.103C175.391 7 175.519 7.096 175.519 7.416V8.696C175.519 8.984 175.391 9.112 175.103 9.112H172.671V18.776C172.671 20.536 173.247 21.048 174.719 21.048C175.167 21.048 175.327 21.24 175.327 21.592V22.488C175.327 22.968 175.007 23.16 173.919 23.16ZM179.402 23C179.082 23 178.986 22.872 178.986 22.584V1.016C178.986 0.727999 179.082 0.599998 179.402 0.599998H180.906C181.194 0.599998 181.322 0.727999 181.322 1.016V8.792H181.674C182.474 7.608 183.914 6.872 185.802 6.872H186.73C190.41 6.872 191.914 8.728 191.914 12.28V22.584C191.914 22.872 191.786 23 191.53 23H189.994C189.706 23 189.61 22.872 189.61 22.584V12.472C189.61 10.232 188.554 9.016 186.218 9.016H185.002C182.666 9.016 181.322 10.264 181.322 12.44V22.584C181.322 22.872 181.194 23 180.906 23H179.402ZM72.6 51.664C72.28 51.664 72.088 51.472 72.216 51.12L74.04 46.256L68.184 30.544C68.056 30.192 68.216 30 68.536 30H71.192C71.512 30 71.64 30.192 71.768 30.544L75.704 41.712H75.96L79.896 30.544C80.024 30.192 80.12 30 80.44 30H83.096C83.416 30 83.608 30.192 83.48 30.544L75.8 51.12C75.672 51.472 75.544 51.664 75.192 51.664H72.6ZM91.424 46.16C87.424 46.16 85.632 44.048 85.632 40.624V35.408C85.632 31.984 87.424 29.872 91.424 29.872H93.312C97.28 29.872 99.104 31.984 99.104 35.408V40.624C99.104 44.048 97.28 46.16 93.312 46.16H91.424ZM89.184 40.56C89.184 42.16 90.08 42.96 91.552 42.96H93.152C94.656 42.96 95.552 42.16 95.552 40.56V35.472C95.552 33.872 94.656 33.072 93.152 33.072H91.552C90.08 33.072 89.184 33.872 89.184 35.472V40.56ZM107.663 46.128C104.047 46.128 102.671 44.208 102.671 40.72V30.48C102.671 30.16 102.863 30 103.087 30H105.743C106.063 30 106.223 30.16 106.223 30.48V40.4C106.223 42.032 107.055 42.928 108.591 42.928H109.967C111.535 42.928 112.591 42.032 112.591 40.4V30.48C112.591 30.16 112.783 30 113.039 30H115.663C115.983 30 116.143 30.16 116.143 30.48V45.52C116.143 45.84 115.983 46 115.663 46H113.039C112.783 46 112.591 45.84 112.591 45.52V44.304H112.143C111.439 45.456 110.063 46.128 108.271 46.128H107.663ZM120.463 46C120.143 46 120.015 45.84 120.015 45.52V30.48C120.015 30.16 120.143 30 120.463 30H123.119C123.343 30 123.567 30.16 123.567 30.48V31.664H123.983C124.719 30.544 126.031 29.872 127.791 29.872H128.175C131.247 29.872 132.367 31.472 132.367 34.512V35.344C132.367 35.664 132.175 35.824 131.919 35.824H129.615C129.295 35.824 129.135 35.664 129.135 35.344C129.135 33.936 128.495 33.072 126.927 33.072H126.191C124.591 33.072 123.567 33.968 123.567 35.6V45.52C123.567 45.84 123.343 46 123.119 46H120.463ZM146.882 46.16C143.266 46.16 141.538 44.24 141.538 40.752V35.28C141.538 31.792 143.266 29.872 146.882 29.872H147.458C149.282 29.872 150.37 30.544 151.106 31.536H151.458V24.08C151.458 23.76 151.618 23.6 151.938 23.6H154.53C154.85 23.6 155.01 23.76 155.01 24.08V45.52C155.01 45.84 154.85 46 154.53 46H151.938C151.618 46 151.458 45.84 151.458 45.52V44.496H151.106C150.37 45.488 149.282 46.16 147.458 46.16H146.882ZM145.09 40.464C145.09 42.064 146.018 42.96 147.522 42.96H149.026C150.53 42.96 151.458 42.064 151.458 40.464V35.568C151.458 33.968 150.53 33.072 149.026 33.072H147.522C146.018 33.072 145.09 33.936 145.09 35.568V40.464ZM168.714 46C168.394 46 168.234 45.84 168.234 45.52V43.888H167.882C166.858 45.136 165.514 46.16 163.338 46.16H163.114C159.882 46.16 158.41 44.4 158.41 41.456V40.496C158.41 37.616 160.042 36.432 163.37 36.432H168.234V35.44C168.234 33.84 167.466 33.008 164.65 33.008C163.338 33.008 161.802 33.168 160.906 33.456C160.586 33.52 160.426 33.424 160.362 33.104L159.978 31.184C159.914 30.928 160.042 30.736 160.298 30.64C161.322 30.256 163.114 29.872 165.258 29.872H166.058C170.122 29.872 171.786 31.888 171.786 35.248V45.52C171.786 45.84 171.626 46 171.338 46H168.714ZM161.898 41.296C161.898 42.608 162.634 43.088 163.882 43.088H165.226C167.146 43.088 168.234 41.712 168.234 40.432V38.992H163.85C162.634 38.992 161.898 39.312 161.898 40.688V41.296ZM181.342 46.16C177.566 46.16 176.958 44.112 176.958 41.04V33.168H174.91C174.558 33.168 174.43 33.008 174.43 32.656V30.512C174.43 30.16 174.558 30 174.91 30H176.958V26.864C176.958 26.544 177.118 26.384 177.438 26.384H180.062C180.382 26.384 180.542 26.544 180.542 26.864V30H182.974C183.294 30 183.454 30.16 183.454 30.512V32.656C183.454 33.008 183.294 33.168 182.974 33.168H180.542V41.072C180.542 42.544 181.118 43.024 182.398 43.024C183.006 43.024 183.198 43.28 183.198 43.76V45.168C183.198 45.84 182.782 46.16 181.342 46.16ZM196.214 46C195.894 46 195.734 45.84 195.734 45.52V43.888H195.382C194.358 45.136 193.014 46.16 190.838 46.16H190.614C187.382 46.16 185.91 44.4 185.91 41.456V40.496C185.91 37.616 187.542 36.432 190.87 36.432H195.734V35.44C195.734 33.84 194.966 33.008 192.15 33.008C190.838 33.008 189.302 33.168 188.406 33.456C188.086 33.52 187.926 33.424 187.862 33.104L187.478 31.184C187.414 30.928 187.542 30.736 187.798 30.64C188.822 30.256 190.614 29.872 192.758 29.872H193.558C197.622 29.872 199.286 31.888 199.286 35.248V45.52C199.286 45.84 199.126 46 198.838 46H196.214ZM189.398 41.296C189.398 42.608 190.134 43.088 191.382 43.088H192.726C194.646 43.088 195.734 41.712 195.734 40.432V38.992H191.35C190.134 38.992 189.398 39.312 189.398 40.688V41.296Z" fill="#606060"/>
<path d="M24.8516 46.4309V51.102C24.8516 51.7172 25.0655 51.8388 25.7911 51.8388H27.2273C27.9453 51.8388 28.0905 51.7172 28.0905 51.102V46.4309H24.8516Z" fill="#606060"/>
<path d="M26.5321 44.4562C21.6738 44.4486 16.93 43.1422 12.8127 40.6661C8.70294 38.1976 5.30363 34.6202 2.99669 30.3213C-1.02137 22.8475 -1.83873 11.7812 5.85363 5.15808C7.69461 3.57066 9.91752 2.3706 12.2856 1.68703C13.1564 1.43638 14.0654 1.93008 14.3175 2.79594C14.5696 3.6618 14.0731 4.56564 13.2022 4.81629C11.2849 5.37075 9.48211 6.34294 8.00016 7.61895C1.66752 13.08 2.46961 22.4146 5.89183 28.7795C7.92377 32.5619 10.9106 35.7064 14.5161 37.871C18.1217 40.0357 22.2849 41.1826 26.5397 41.1902C27.4488 41.1902 28.1821 41.9269 28.1821 42.8232C28.1668 43.727 27.4335 44.4562 26.5321 44.4562Z" fill="#606060"/>
<path d="M26.5318 44.4561C25.8214 44.4561 25.2102 44.0004 24.9887 43.37C24.8894 43.1573 24.8359 42.9218 24.8359 42.6788V12.0621C24.8589 9.35061 25.8595 6.75302 27.6547 4.74786C29.6943 2.46167 32.7575 1.05654 35.8359 1.00338H36.004C36.088 0.99578 36.2332 1.00338 36.3707 1.00338H36.4547C40.404 1.10211 44.2234 2.5756 47.2102 5.15041C50.7929 8.2341 52.9929 12.8444 53.1075 17.4852C53.329 26.7438 48.2873 35.8354 40.2512 40.6584C36.1339 43.1421 31.3901 44.4485 26.5318 44.4561ZM36.1262 4.26935C36.1109 4.26935 36.0957 4.26935 36.0804 4.26935H35.8741C33.7123 4.30733 31.5505 5.29472 30.1068 6.91252C28.854 8.31005 28.1359 10.1937 28.1207 12.0773V41.1369C31.8179 40.8863 35.4005 39.7698 38.563 37.871C45.6061 33.6404 50.029 25.6729 49.8304 17.5687C49.7387 13.8318 47.9589 10.1101 45.0714 7.61888C42.6575 5.53777 39.5714 4.3529 36.3859 4.26935H36.279C36.2179 4.26935 36.172 4.26935 36.1262 4.26935Z" fill="#606060"/>
</svg>
