<svg width="231" height="59" viewBox="0 0 231 59" fill="none" xmlns="http://www.w3.org/2000/svg">
<path d="M0 2V45.1C0.3 51.6 8 55.1 14.6 55.6C16.8 55.8 19.3 55.8 20.1 56.3C21.4 56.9 21.7 59 21.7 59C21.7 59 22 56.9 23.3 56.3C24.1 55.9 26.6 55.8 28.8 55.6C35.6 55.1 43.4 51.4 43.4 44.7V2H0ZM28.3 38.1C25.9 41 23.5 41.7 22.8 42.1V51.1L20.5 47.7V42.1C19.8 41.7 17.4 41.1 15 38.1C10.5 33.2 7.6 33 7.6 33C13.2 32.2 17.6 36.5 20.5 40.4V38.2V35.9H19.9L19.5 34.5H20.6V32.4C21.9 32.1 28.7 30.2 28.8 22.3C28.8 20.2 27.6 13.9 21.9 14C18.5 14 14.9 16.2 14.9 22.3C14.9 26.6 17.3 30.4 21.9 31.2C19 32.2 17.2 31.5 16.3 31C14.8 30.3 13.7 29.2 12.9 27.7C12.1 26.3 11.6 24.6 11.6 22.5C11.6 20.4 11.8 19.4 12.3 18.2C12.8 17 13.5 15.9 14.5 15.1C15.4 14.2 16.4 13.6 17.5 13.2C18.2 13 19 12.7 19.7 12.6C19.2 11.4 17.2 10.2 16.1 9.4C19.3 9.1 20.5 10.5 20.5 10.5C20.5 8.9 21.8 6 21.9 5.8C21.9 6 23.1 8.8 23.2 10.5C23.2 10.5 24.5 9.1 27.6 9.4C26.5 10.1 24.6 11.4 24.1 12.6C25 12.7 25.6 12.9 26.3 13.3C27.3 13.7 28.2 14.2 28.9 14.8C29.7 15.5 30.3 16.1 30.7 16.8C31.1 17.5 31.4 18.3 31.6 19.1C31.8 19.9 32 21.5 32 22.3C32 24 31.9 25.1 31.3 26.5C30.9 27.6 30.2 28.6 29.4 29.4C28.6 30.2 27.6 30.9 26.5 31.3C25.1 32 24.8 32 23 32.3V34.4H23.6L24 35.8H22.9V40.3C25.8 36.4 30.1 32.1 35.8 32.9C35.8 32.9 32.9 33.1 28.4 38L28.3 38.1ZM21.7 19.4C22.4 19.4 23 20 23 20.7C23 21.4 22.4 22 21.7 22C21 22 20.4 21.4 20.4 20.7C20.4 20 21 19.4 21.7 19.4ZM20.5 17C20.5 16.3 21.1 15.7 21.8 15.7C22.5 15.7 23.1 16.3 23.1 17C23.1 17.7 22.5 18.3 21.8 18.3C21.1 18.3 20.5 17.7 20.5 17ZM21.7 23.2C22.4 23.2 23 23.8 23 24.5C23 25.2 22.4 25.8 21.7 25.8C21 25.8 20.4 25.2 20.4 24.5C20.4 23.8 21 23.2 21.7 23.2ZM21.7 27C22.4 27 23 27.6 23 28.3C23 29 22.4 29.6 21.7 29.6C21 29.6 20.4 29 20.4 28.3C20.4 27.6 21 27 21.7 27ZM25.2 20.2C24.5 20.2 23.9 19.6 23.9 18.9C23.9 18.2 24.5 17.6 25.2 17.6C25.9 17.6 26.5 18.2 26.5 18.9C26.5 19.6 25.9 20.2 25.2 20.2ZM26.5 26.2C26.5 26.9 25.9 27.5 25.2 27.5C24.5 27.5 23.9 26.9 23.9 26.2C23.9 25.5 24.5 24.9 25.2 24.9C25.9 24.9 26.5 25.5 26.5 26.2ZM24.6 21.3C25.3 21.3 25.9 21.9 25.9 22.6C25.9 23.3 25.3 23.9 24.6 23.9C23.9 23.9 23.3 23.3 23.3 22.6C23.3 21.9 23.9 21.3 24.6 21.3ZM18.2 24.9C18.9 24.9 19.5 25.5 19.5 26.2C19.5 26.9 18.9 27.5 18.2 27.5C17.5 27.5 16.9 26.9 16.9 26.2C16.9 25.5 17.5 24.9 18.2 24.9ZM17 18.9C17 18.2 17.6 17.6 18.3 17.6C19 17.6 19.6 18.2 19.6 18.9C19.6 19.6 19 20.2 18.3 20.2C17.6 20.2 17 19.6 17 18.9ZM18.8 23.9C18.1 23.9 17.5 23.3 17.5 22.6C17.5 21.9 18.1 21.3 18.8 21.3C19.5 21.3 20.1 21.9 20.1 22.6C20.1 23.3 19.5 23.9 18.8 23.9Z" fill="#001C64"/>
<path d="M67.896 23.16C63.352 23.16 61.208 20.888 61.208 16.696V6.904C61.208 2.68 63.352 0.439999 67.896 0.439999H70.072C74.648 0.439999 76.696 2.552 76.696 6.68V6.84C76.696 7.064 76.536 7.192 76.312 7.192H74.648C74.424 7.192 74.296 7.064 74.296 6.84C74.296 3.8 72.792 2.648 69.976 2.648H67.992C65.016 2.648 63.608 3.928 63.608 6.936V16.632C63.608 19.672 65.016 20.952 67.992 20.952H69.976C72.792 20.952 74.296 19.832 74.296 16.984C74.296 16.76 74.424 16.632 74.648 16.632H76.312C76.536 16.632 76.696 16.792 76.696 16.984V17.176C76.696 21.08 74.648 23.16 70.072 23.16H67.896ZM81.0265 23C80.7065 23 80.6105 22.872 80.6105 22.584V1.016C80.6105 0.727999 80.7065 0.599998 81.0265 0.599998H82.5305C82.8185 0.599998 82.9465 0.727999 82.9465 1.016V8.792H83.2985C84.0985 7.608 85.5385 6.872 87.4265 6.872H88.3545C92.0345 6.872 93.5385 8.728 93.5385 12.28V22.584C93.5385 22.872 93.4105 23 93.1545 23H91.6185C91.3305 23 91.2345 22.872 91.2345 22.584V12.472C91.2345 10.232 90.1785 9.016 87.8425 9.016H86.6265C84.2905 9.016 82.9465 10.264 82.9465 12.44V22.584C82.9465 22.872 82.8185 23 82.5305 23H81.0265ZM108.17 23C107.85 23 107.754 22.872 107.754 22.584V20.6H107.434C106.314 22.04 104.65 23.16 102.25 23.16H102.058C98.6338 23.16 97.1618 21.432 97.1618 18.456V17.624C97.1618 14.744 98.9538 13.592 102.09 13.592H107.754V12.312C107.754 10.168 106.922 8.984 103.594 8.984C101.962 8.984 100.426 9.176 99.3698 9.528C99.1458 9.592 98.9538 9.496 98.9218 9.272L98.6978 8.056C98.6338 7.832 98.7298 7.672 98.9218 7.608C99.9138 7.224 101.674 6.872 103.818 6.872H104.458C108.426 6.872 110.09 8.76 110.09 12.152V22.584C110.09 22.872 109.962 23 109.674 23H108.17ZM99.4658 18.328C99.4658 20.28 100.49 21.048 102.378 21.048H103.498C105.866 21.048 107.754 19.224 107.754 17.4V15.416H102.346C100.522 15.416 99.4658 15.928 99.4658 17.784V18.328ZM118.981 23.16C116.229 23.16 115.397 21.688 115.397 18.904V9.112H113.285C112.997 9.112 112.869 8.984 112.869 8.696V7.416C112.869 7.096 112.997 7 113.285 7H115.397V3.96C115.397 3.704 115.525 3.576 115.813 3.576H117.317C117.605 3.576 117.733 3.704 117.733 3.96V7H120.165C120.453 7 120.581 7.096 120.581 7.416V8.696C120.581 8.984 120.453 9.112 120.165 9.112H117.733V18.776C117.733 20.536 118.309 21.048 119.781 21.048C120.229 21.048 120.389 21.24 120.389 21.592V22.488C120.389 22.968 120.069 23.16 118.981 23.16ZM134.006 23C133.654 23 133.43 22.84 133.334 22.456L129.686 7.48C129.622 7.192 129.654 7 129.974 7H131.51C131.83 7 131.958 7.192 132.022 7.48L135.158 20.728H135.286L138.902 7.48C138.998 7.192 139.094 7 139.414 7H141.238C141.558 7 141.622 7.192 141.718 7.48L145.366 20.728H145.494L148.63 7.48C148.694 7.192 148.822 7 149.142 7H150.646C150.966 7 151.03 7.192 150.966 7.48L147.318 22.456C147.222 22.84 146.998 23 146.646 23H144.31C143.958 23 143.734 22.84 143.638 22.456L140.406 10.392H140.246L137.014 22.456C136.918 22.84 136.694 23 136.342 23H134.006ZM154.714 2.904C154.394 2.904 154.298 2.776 154.298 2.488V1.016C154.298 0.727999 154.394 0.599998 154.714 0.599998H156.25C156.57 0.599998 156.666 0.727999 156.666 1.016V2.488C156.666 2.776 156.57 2.904 156.25 2.904H154.714ZM154.33 22.584V7.416C154.33 7.128 154.458 7 154.746 7H156.25C156.538 7 156.666 7.128 156.666 7.416V22.584C156.666 22.872 156.538 23 156.25 23H154.746C154.458 23 154.33 22.872 154.33 22.584ZM165.919 23.16C163.167 23.16 162.335 21.688 162.335 18.904V9.112H160.223C159.935 9.112 159.807 8.984 159.807 8.696V7.416C159.807 7.096 159.935 7 160.223 7H162.335V3.96C162.335 3.704 162.463 3.576 162.751 3.576H164.255C164.543 3.576 164.671 3.704 164.671 3.96V7H167.103C167.391 7 167.519 7.096 167.519 7.416V8.696C167.519 8.984 167.391 9.112 167.103 9.112H164.671V18.776C164.671 20.536 165.247 21.048 166.719 21.048C167.167 21.048 167.327 21.24 167.327 21.592V22.488C167.327 22.968 167.007 23.16 165.919 23.16ZM171.402 23C171.082 23 170.986 22.872 170.986 22.584V1.016C170.986 0.727999 171.082 0.599998 171.402 0.599998H172.906C173.194 0.599998 173.322 0.727999 173.322 1.016V8.792H173.674C174.474 7.608 175.914 6.872 177.802 6.872H178.73C182.41 6.872 183.914 8.728 183.914 12.28V22.584C183.914 22.872 183.786 23 183.53 23H181.994C181.706 23 181.61 22.872 181.61 22.584V12.472C181.61 10.232 180.554 9.016 178.218 9.016H177.002C174.666 9.016 173.322 10.264 173.322 12.44V22.584C173.322 22.872 173.194 23 172.906 23H171.402ZM64.6 51.664C64.28 51.664 64.088 51.472 64.216 51.12L66.04 46.256L60.184 30.544C60.056 30.192 60.216 30 60.536 30H63.192C63.512 30 63.64 30.192 63.768 30.544L67.704 41.712H67.96L71.896 30.544C72.024 30.192 72.12 30 72.44 30H75.096C75.416 30 75.608 30.192 75.48 30.544L67.8 51.12C67.672 51.472 67.544 51.664 67.192 51.664H64.6ZM83.424 46.16C79.424 46.16 77.632 44.048 77.632 40.624V35.408C77.632 31.984 79.424 29.872 83.424 29.872H85.312C89.28 29.872 91.104 31.984 91.104 35.408V40.624C91.104 44.048 89.28 46.16 85.312 46.16H83.424ZM81.184 40.56C81.184 42.16 82.08 42.96 83.552 42.96H85.152C86.656 42.96 87.552 42.16 87.552 40.56V35.472C87.552 33.872 86.656 33.072 85.152 33.072H83.552C82.08 33.072 81.184 33.872 81.184 35.472V40.56ZM99.6628 46.128C96.0468 46.128 94.6708 44.208 94.6708 40.72V30.48C94.6708 30.16 94.8628 30 95.0868 30H97.7428C98.0628 30 98.2228 30.16 98.2228 30.48V40.4C98.2228 42.032 99.0548 42.928 100.591 42.928H101.967C103.535 42.928 104.591 42.032 104.591 40.4V30.48C104.591 30.16 104.783 30 105.039 30H107.663C107.983 30 108.143 30.16 108.143 30.48V45.52C108.143 45.84 107.983 46 107.663 46H105.039C104.783 46 104.591 45.84 104.591 45.52V44.304H104.143C103.439 45.456 102.063 46.128 100.271 46.128H99.6628ZM112.463 46C112.143 46 112.015 45.84 112.015 45.52V30.48C112.015 30.16 112.143 30 112.463 30H115.119C115.343 30 115.567 30.16 115.567 30.48V31.664H115.983C116.719 30.544 118.031 29.872 119.791 29.872H120.175C123.247 29.872 124.367 31.472 124.367 34.512V35.344C124.367 35.664 124.175 35.824 123.919 35.824H121.615C121.295 35.824 121.135 35.664 121.135 35.344C121.135 33.936 120.495 33.072 118.927 33.072H118.191C116.591 33.072 115.567 33.968 115.567 35.6V45.52C115.567 45.84 115.343 46 115.119 46H112.463ZM138.882 46.16C135.266 46.16 133.538 44.24 133.538 40.752V35.28C133.538 31.792 135.266 29.872 138.882 29.872H139.458C141.282 29.872 142.37 30.544 143.106 31.536H143.458V24.08C143.458 23.76 143.618 23.6 143.938 23.6H146.53C146.85 23.6 147.01 23.76 147.01 24.08V45.52C147.01 45.84 146.85 46 146.53 46H143.938C143.618 46 143.458 45.84 143.458 45.52V44.496H143.106C142.37 45.488 141.282 46.16 139.458 46.16H138.882ZM137.09 40.464C137.09 42.064 138.018 42.96 139.522 42.96H141.026C142.53 42.96 143.458 42.064 143.458 40.464V35.568C143.458 33.968 142.53 33.072 141.026 33.072H139.522C138.018 33.072 137.09 33.936 137.09 35.568V40.464ZM160.714 46C160.394 46 160.234 45.84 160.234 45.52V43.888H159.882C158.858 45.136 157.514 46.16 155.338 46.16H155.114C151.882 46.16 150.41 44.4 150.41 41.456V40.496C150.41 37.616 152.042 36.432 155.37 36.432H160.234V35.44C160.234 33.84 159.466 33.008 156.65 33.008C155.338 33.008 153.802 33.168 152.906 33.456C152.586 33.52 152.426 33.424 152.362 33.104L151.978 31.184C151.914 30.928 152.042 30.736 152.298 30.64C153.322 30.256 155.114 29.872 157.258 29.872H158.058C162.122 29.872 163.786 31.888 163.786 35.248V45.52C163.786 45.84 163.626 46 163.338 46H160.714ZM153.898 41.296C153.898 42.608 154.634 43.088 155.882 43.088H157.226C159.146 43.088 160.234 41.712 160.234 40.432V38.992H155.85C154.634 38.992 153.898 39.312 153.898 40.688V41.296ZM173.342 46.16C169.566 46.16 168.958 44.112 168.958 41.04V33.168H166.91C166.558 33.168 166.43 33.008 166.43 32.656V30.512C166.43 30.16 166.558 30 166.91 30H168.958V26.864C168.958 26.544 169.118 26.384 169.438 26.384H172.062C172.382 26.384 172.542 26.544 172.542 26.864V30H174.974C175.294 30 175.454 30.16 175.454 30.512V32.656C175.454 33.008 175.294 33.168 174.974 33.168H172.542V41.072C172.542 42.544 173.118 43.024 174.398 43.024C175.006 43.024 175.198 43.28 175.198 43.76V45.168C175.198 45.84 174.782 46.16 173.342 46.16ZM188.214 46C187.894 46 187.734 45.84 187.734 45.52V43.888H187.382C186.358 45.136 185.014 46.16 182.838 46.16H182.614C179.382 46.16 177.91 44.4 177.91 41.456V40.496C177.91 37.616 179.542 36.432 182.87 36.432H187.734V35.44C187.734 33.84 186.966 33.008 184.15 33.008C182.838 33.008 181.302 33.168 180.406 33.456C180.086 33.52 179.926 33.424 179.862 33.104L179.478 31.184C179.414 30.928 179.542 30.736 179.798 30.64C180.822 30.256 182.614 29.872 184.758 29.872H185.558C189.622 29.872 191.286 31.888 191.286 35.248V45.52C191.286 45.84 191.126 46 190.838 46H188.214ZM181.398 41.296C181.398 42.608 182.134 43.088 183.382 43.088H184.726C186.646 43.088 187.734 41.712 187.734 40.432V38.992H183.35C182.134 38.992 181.398 39.312 181.398 40.688V41.296Z" fill="#252529"/>
</svg>
